<svg aria-hidden="true" style="position: absolute; width: 0; height: 0; overflow: hidden;" version="1.1" xmlns="http://www.w3.org/2000/svg" xmlns:xlink="http://www.w3.org/1999/xlink">
<defs>
<symbol id="icon-logo" viewBox="0 0 32 32">
<path d="M29.082 0.314h-4.009c-1.237 0-2.24 0.983-2.24 2.195v3.929c0 1.212 1.003 2.195 2.24 2.195h4.009c1.237 0 2.24-0.983 2.24-2.195v-3.929c0-1.212-1.003-2.195-2.24-2.195z"></path>
<path d="M6.73 23.040h-4.318c-1.332 0-2.412 0.983-2.412 2.195v3.929c0 1.213 1.080 2.195 2.412 2.195h4.318c1.332 0 2.412-0.983 2.412-2.195v-3.929c0-1.212-1.080-2.195-2.412-2.195z"></path>
<path d="M6.25 11.582h-4.009c-1.237 0-2.24 0.983-2.24 2.195v3.929c0 1.212 1.003 2.195 2.24 2.195h4.009c1.237 0 2.24-0.983 2.24-2.195v-3.929c0-1.212-1.003-2.195-2.24-2.195z"></path>
<path d="M17.766 22.978h-4.009c-1.237 0-2.24 0.983-2.24 2.195l-0 3.929c0 1.212 1.003 2.195 2.241 2.195h4.009c1.237 0 2.24-0.983 2.24-2.195v-3.929c0-1.212-1.003-2.195-2.24-2.195z"></path>
<path d="M6.25 0.086h-4.009c-1.237 0-2.24 0.983-2.24 2.195v3.929c0 1.212 1.003 2.195 2.24 2.195h4.009c1.237 0 2.24-0.983 2.24-2.195v-3.929c0-1.212-1.003-2.195-2.24-2.195z"></path>
<path d="M18.076 11.697h-4.009c-1.237 0-2.24 0.983-2.24 2.195v3.929c0 1.212 1.003 2.195 2.24 2.195h4.009c1.237 0 2.24-0.983 2.24-2.195v-3.929c0-1.212-1.003-2.195-2.24-2.195z"></path>
<path d="M29.333 22.978h-4.010c-1.237 0-2.24 0.983-2.24 2.195v3.929c0 1.212 1.003 2.195 2.24 2.195h4.009c1.237 0 2.24-0.983 2.24-2.195v-3.929c0-1.212-1.003-2.195-2.24-2.195z"></path>
<path d="M17.591 0.224h-4.009c-1.237 0-2.24 0.983-2.24 2.195v3.929c0 1.212 1.003 2.195 2.24 2.195h4.009c1.237 0 2.24-0.984 2.24-2.196v-3.929c0-1.212-1.003-2.195-2.24-2.195z"></path>
<path d="M29.044 11.926h-4.010c-1.237 0-2.24 0.983-2.24 2.195v3.929c0 1.212 1.003 2.195 2.24 2.195h4.009c1.237 0 2.24-0.983 2.24-2.195v-3.929c0-1.212-1.003-2.195-2.24-2.195z"></path>
</symbol>
<symbol id="icon-map-pin-1" viewBox="0 0 29 32">
<path stroke-linejoin="round" stroke-linecap="round" stroke-miterlimit="4" stroke-width="2.4" d="M26.4 13.333c0 9.333-12 17.333-12 17.333s-12-8-12-17.333c0-3.183 1.264-6.235 3.515-8.485s5.303-3.515 8.485-3.515c3.183 0 6.235 1.264 8.485 3.515s3.515 5.303 3.515 8.485z"></path>
<path stroke-linejoin="round" stroke-linecap="round" stroke-miterlimit="4" stroke-width="2.4" d="M14.4 17.333c2.209 0 4-1.791 4-4s-1.791-4-4-4c-2.209 0-4 1.791-4 4s1.791 4 4 4z"></path>
</symbol>
<symbol id="icon-Vertical-container" viewBox="0 0 17 32">
<path d="M8.159 2.78c-0.709 0-1.396 0.252-1.944 0.713s-0.924 1.102-1.063 1.815l-0.055 0.283c-0.015 0.063-0.017 0.129-0.006 0.193s0.034 0.125 0.068 0.18c0.034 0.055 0.079 0.102 0.131 0.138s0.111 0.062 0.173 0.075c0.062 0.013 0.126 0.013 0.188-0.001s0.121-0.039 0.173-0.076c0.052-0.037 0.096-0.084 0.13-0.139s0.057-0.116 0.067-0.18l0.056-0.282c0.105-0.528 0.397-0.998 0.82-1.318s0.947-0.468 1.47-0.415c0.523 0.053 1.008 0.304 1.362 0.703s0.55 0.919 0.551 1.458c0 0.578-0.224 1.132-0.622 1.541s-0.939 0.639-1.502 0.639h-6.846c-0.125 0-0.245 0.051-0.334 0.142s-0.138 0.214-0.138 0.342c0 0.128 0.050 0.252 0.138 0.342s0.209 0.142 0.334 0.142h6.846c0.801-0.020 1.562-0.36 2.122-0.948s0.873-1.377 0.873-2.198c0-0.822-0.313-1.611-0.872-2.199s-1.32-0.929-2.121-0.95zM13.587 7.138c-0.626 0-1.227 0.255-1.669 0.709s-0.691 1.070-0.691 1.712c0 0.128 0.050 0.252 0.138 0.342s0.209 0.142 0.334 0.142c0.125 0 0.245-0.051 0.334-0.142s0.138-0.214 0.138-0.342c0-0.287 0.083-0.568 0.239-0.807s0.377-0.425 0.636-0.535c0.259-0.11 0.544-0.139 0.818-0.083s0.527 0.194 0.725 0.398c0.198 0.203 0.333 0.462 0.388 0.744s0.027 0.574-0.081 0.839c-0.107 0.265-0.289 0.492-0.522 0.652s-0.507 0.245-0.787 0.245h-12.275c-0.125 0-0.245 0.051-0.334 0.142s-0.138 0.214-0.138 0.342c0 0.128 0.050 0.252 0.138 0.342s0.209 0.142 0.334 0.142h9.207c0.313 0.001 0.613 0.129 0.834 0.356s0.345 0.536 0.344 0.857c-0.001 0.321-0.126 0.629-0.347 0.855s-0.522 0.354-0.835 0.353c-0.282 0-0.555-0.102-0.77-0.288s-0.36-0.445-0.407-0.73l-0.005-0.029c-0.008-0.064-0.029-0.126-0.062-0.182s-0.075-0.104-0.126-0.143c-0.051-0.039-0.109-0.066-0.17-0.081s-0.125-0.017-0.188-0.007c-0.062 0.011-0.122 0.034-0.175 0.069s-0.099 0.080-0.135 0.133c-0.036 0.053-0.061 0.113-0.074 0.177s-0.013 0.129-0.001 0.193l0.005 0.029c0.084 0.511 0.342 0.975 0.728 1.31s0.875 0.518 1.381 0.518c0.564 0 1.105-0.229 1.504-0.638s0.624-0.963 0.625-1.541c0-0.448-0.132-0.865-0.358-1.211h1.302c0.626 0 1.227-0.255 1.669-0.709s0.691-1.070 0.691-1.712-0.249-1.258-0.691-1.712c-0.443-0.454-1.043-0.709-1.669-0.709z"></path>
<path d="M8.159 2.78l0.068-2.622-0.034-0.001h-0.034l0.001 2.623zM5.153 5.308l-2.574-0.503-0.001 0.004 2.575 0.499zM5.098 5.591l2.556 0.588 0.010-0.045 0.009-0.045-2.575-0.499zM6.023 5.781l-2.573-0.509-0.009 0.047-0.007 0.047 2.59 0.415zM6.079 5.499v0zM10.282 5.927h2.623v-0.006l-2.623 0.006zM8.157 8.107v2.623h0.001l-0.001-2.623zM0.839 8.591v0zM8.157 9.075v2.623h0.033l0.033-0.001-0.066-2.622zM12.171 9.56v0zM0.839 11.497v0zM10.518 11.981l0.005-2.623h-0.005v2.623zM10.513 14.402l0.005-2.623h-0.007l0.002 2.623zM9.336 13.383l-2.589 0.421 0.001 0.004 0.001 0.004 2.588-0.429zM9.331 13.354l-2.6 0.344 0.005 0.039 0.006 0.039 2.589-0.421zM8.4 13.513l2.589-0.421-0.006-0.038-0.007-0.037-2.576 0.496zM8.405 13.542l-2.589 0.421 0.001 0.004 2.588-0.425zM10.513 15.37l0.001-2.623h-0.002l0.001 2.623zM12.643 13.191l2.623 0.005v-0.005h-2.623zM12.285 11.981v-2.623h-4.844l2.648 4.057 2.196-1.434zM8.159 0.157c-1.333 0-2.616 0.475-3.631 1.328l3.376 4.015c0.081-0.068 0.172-0.098 0.256-0.098l-0.001-5.246zM4.528 1.486c-1.014 0.852-1.697 2.028-1.949 3.32l5.149 1.006c0.026-0.134 0.094-0.241 0.177-0.31l-3.376-4.015zM2.578 4.809l-0.055 0.283 5.15 0.997 0.055-0.283-5.15-0.997zM2.542 5.003c-0.092 0.398-0.104 0.81-0.037 1.213l5.174-0.863c0.046 0.275 0.037 0.555-0.025 0.827l-5.112-1.177zM2.505 6.215c0.067 0.403 0.213 0.79 0.432 1.14l4.446-2.784c0.15 0.24 0.25 0.506 0.296 0.78l-5.174 0.863zM2.937 7.356c0.219 0.35 0.507 0.655 0.851 0.896l3.008-4.298c0.239 0.167 0.438 0.378 0.588 0.619l-4.446 2.784zM3.788 8.251c0.344 0.24 0.735 0.41 1.15 0.495l1.054-5.139c0.291 0.060 0.564 0.178 0.803 0.346l-3.008 4.298zM4.938 8.746c0.416 0.085 0.844 0.084 1.259-0.004l-1.088-5.132c0.291-0.062 0.592-0.063 0.883-0.003l-1.054 5.139zM6.197 8.742c0.415-0.088 0.805-0.26 1.147-0.503l-3.036-4.278c0.238-0.169 0.51-0.289 0.801-0.351l1.088 5.132zM7.344 8.239c0.342-0.243 0.628-0.55 0.845-0.901l-4.464-2.755c0.149-0.241 0.346-0.454 0.584-0.622l3.036 4.278zM8.189 7.339c0.217-0.351 0.36-0.74 0.425-1.143l-5.18-0.83c0.044-0.275 0.142-0.541 0.291-0.782l4.464 2.755zM8.597 6.289l0.056-0.282-5.146-1.017-0.056 0.282 5.146 1.017zM8.652 6.008c-0.018 0.092-0.072 0.189-0.17 0.263l-3.166-4.183c-0.944 0.715-1.582 1.752-1.81 2.9l5.146 1.019zM8.482 6.272c-0.1 0.076-0.236 0.118-0.379 0.103l0.532-5.219c-1.189-0.121-2.372 0.216-3.319 0.933l3.166 4.183zM8.103 6.375c-0.142-0.015-0.26-0.081-0.336-0.168l3.928-3.477c-0.783-0.885-1.872-1.453-3.060-1.574l-0.532 5.219zM7.767 6.207c-0.075-0.085-0.108-0.183-0.108-0.274l5.246-0.013c-0.003-1.17-0.428-2.307-1.21-3.19l-3.928 3.477zM7.659 5.927c0-0.096 0.037-0.202 0.122-0.29l3.757 3.661c0.882-0.905 1.367-2.12 1.367-3.372h-5.246zM7.781 5.637c0.088-0.090 0.221-0.153 0.375-0.153l0.002 5.246c1.281-0.001 2.495-0.523 3.38-1.431l-3.757-3.661zM8.157 5.484h-6.846v5.246h6.846v-5.246zM1.312 5.484c-0.843 0-1.637 0.344-2.212 0.934l3.756 3.662c-0.398 0.408-0.952 0.65-1.544 0.65v-5.246zM-0.9 6.418c-0.573 0.588-0.883 1.371-0.883 2.173h5.246c0 0.546-0.211 1.083-0.607 1.489l-3.756-3.662zM-1.784 8.591c0 0.803 0.31 1.586 0.883 2.173l3.756-3.662c0.396 0.406 0.607 0.943 0.607 1.489h-5.246zM-0.9 10.765c0.575 0.59 1.369 0.934 2.212 0.934v-5.246c0.592 0 1.146 0.242 1.544 0.65l-3.756 3.662zM1.312 11.698h6.846v-5.246h-6.846v5.246zM8.223 11.698c1.506-0.038 2.924-0.678 3.956-1.762l-3.8-3.616c-0.087 0.092-0.192 0.132-0.287 0.134l0.132 5.244zM12.179 9.935c1.030-1.082 1.595-2.521 1.596-4.006l-5.246-0.002c-0 0.158-0.061 0.297-0.15 0.391l3.8 3.616zM13.775 5.93c0-1.485-0.565-2.924-1.594-4.007l-3.802 3.614c0.089 0.094 0.15 0.233 0.15 0.391l5.246 0.002zM12.181 1.923c-1.031-1.085-2.449-1.726-3.955-1.765l-0.135 5.244c0.095 0.002 0.2 0.043 0.287 0.135l3.802-3.614zM13.587 4.516c-1.343 0-2.618 0.548-3.547 1.501l3.756 3.662c-0.044 0.045-0.117 0.083-0.209 0.083v-5.246zM10.040 6.017c-0.927 0.951-1.436 2.226-1.436 3.543h5.246c0 0.032-0.012 0.076-0.053 0.119l-3.756-3.662zM8.603 9.56c0 0.803 0.31 1.586 0.883 2.173l3.756-3.662c0.396 0.406 0.607 0.943 0.607 1.489h-5.246zM9.487 11.733c0.575 0.59 1.369 0.934 2.212 0.934v-5.246c0.592 0 1.146 0.242 1.544 0.65l-3.756 3.662zM11.698 12.667c0.843 0 1.637-0.344 2.212-0.934l-3.756-3.662c0.398-0.408 0.952-0.65 1.544-0.65v5.246zM13.91 11.733c0.573-0.588 0.883-1.371 0.883-2.173h-5.246c0-0.546 0.211-1.083 0.607-1.489l3.756 3.662zM14.793 9.56c0 0.217-0.062 0.434-0.187 0.625l-4.395-2.864c-0.435 0.668-0.664 1.447-0.664 2.239h5.246zM14.607 10.184c-0.125 0.191-0.309 0.35-0.536 0.447l-2.051-4.828c-0.745 0.317-1.372 0.848-1.808 1.517l4.395 2.864zM14.070 10.632c-0.229 0.097-0.484 0.124-0.732 0.073l1.049-5.14c-0.797-0.163-1.622-0.079-2.368 0.239l2.051 4.828zM13.339 10.705c-0.247-0.050-0.464-0.173-0.629-0.341l3.756-3.662c-0.56-0.575-1.283-0.974-2.079-1.136l-1.049 5.14zM12.71 10.364c-0.164-0.168-0.268-0.373-0.309-0.588l5.15-0.999c-0.151-0.778-0.525-1.501-1.085-2.076l-3.756 3.662zM12.401 9.776c-0.042-0.214-0.021-0.437 0.062-0.642l4.864 1.964c0.297-0.737 0.374-1.543 0.223-2.321l-5.15 0.999zM12.463 9.133c0.083-0.206 0.229-0.393 0.428-0.529l2.966 4.327c0.665-0.456 1.173-1.096 1.471-1.833l-4.864-1.964zM12.891 8.604c0.2-0.137 0.442-0.214 0.696-0.214v5.246c0.814 0 1.604-0.248 2.27-0.704l-2.966-4.327zM13.587 8.389h-12.275v5.246h12.275v-5.246zM1.312 8.389c-0.843 0-1.637 0.344-2.212 0.934l3.756 3.662c-0.398 0.408-0.952 0.65-1.544 0.65v-5.246zM-0.9 9.323c-0.573 0.588-0.883 1.371-0.883 2.173h5.246c0 0.546-0.211 1.083-0.607 1.489l-3.756-3.662zM-1.784 11.497c0 0.803 0.31 1.586 0.883 2.173l3.756-3.662c0.396 0.406 0.607 0.943 0.607 1.489h-5.246zM-0.9 13.67c0.575 0.59 1.369 0.934 2.212 0.934v-5.246c0.592 0 1.146 0.242 1.544 0.65l-3.756 3.662zM1.312 14.604h9.207v-5.246h-9.207v5.246zM10.513 14.604c-0.404-0.001-0.778-0.167-1.042-0.439l3.763-3.655c-0.706-0.727-1.68-1.15-2.71-1.152l-0.011 5.246zM9.47 14.164c-0.262-0.27-0.398-0.622-0.397-0.976l5.246 0.010c0.002-0.996-0.381-1.964-1.085-2.689l-3.763 3.655zM9.073 13.189c0.001-0.353 0.138-0.705 0.401-0.974l3.749 3.67c0.707-0.722 1.094-1.689 1.096-2.685l-5.246-0.010zM9.474 12.214c0.266-0.271 0.64-0.436 1.044-0.435l-0.011 5.246c1.030 0.002 2.006-0.416 2.715-1.141l-3.749-3.67zM10.511 11.779c0.356-0 0.692 0.129 0.948 0.351l-3.433 3.967c0.687 0.594 1.568 0.929 2.489 0.928l-0.004-5.246zM11.459 12.13c0.254 0.22 0.413 0.514 0.464 0.824l-5.175 0.858c0.146 0.88 0.593 1.691 1.278 2.285l3.432-3.967zM11.925 12.962l-0.005-0.029-5.178 0.841 0.005 0.029 5.178-0.841zM11.931 13.011c-0.053-0.403-0.185-0.795-0.391-1.15l-4.542 2.624c-0.141-0.244-0.231-0.512-0.268-0.787l5.201-0.687zM11.541 11.86c-0.206-0.356-0.481-0.67-0.814-0.922l-3.165 4.183c-0.231-0.175-0.421-0.392-0.563-0.637l4.542-2.624zM10.726 10.938c-0.333-0.252-0.716-0.436-1.126-0.537l-1.253 5.094c-0.288-0.071-0.555-0.199-0.786-0.374l3.165-4.183zM9.6 10.401c-0.411-0.101-0.838-0.117-1.255-0.045l0.882 5.171c-0.293 0.050-0.592 0.039-0.88-0.032l1.253-5.094zM8.345 10.356c-0.417 0.071-0.813 0.227-1.164 0.455l2.86 4.398c-0.244 0.159-0.521 0.268-0.813 0.318l-0.882-5.171zM7.181 10.811c-0.351 0.228-0.649 0.523-0.88 0.865l4.348 2.935c-0.159 0.235-0.365 0.439-0.609 0.598l-2.86-4.398zM6.301 11.676c-0.23 0.341-0.389 0.723-0.47 1.123l5.141 1.044c-0.055 0.272-0.164 0.534-0.322 0.769l-4.348-2.935zM5.831 12.799c-0.081 0.399-0.083 0.81-0.006 1.21l5.151-0.992c0.053 0.273 0.051 0.553-0.004 0.825l-5.141-1.044zM5.811 13.934l0.005 0.029 5.178-0.841-0.005-0.029-5.178 0.841zM5.817 13.967c0.182 1.107 0.742 2.125 1.598 2.867l3.437-3.963c0.084 0.073 0.128 0.162 0.142 0.246l-5.177 0.85zM7.414 16.834c0.857 0.744 1.955 1.16 3.1 1.16l-0.001-5.246c0.133-0 0.253 0.049 0.338 0.123l-3.437 3.963zM10.512 17.993c1.281 0.001 2.496-0.521 3.381-1.427l-3.752-3.666c0.087-0.089 0.22-0.152 0.373-0.152l-0.002 5.246zM13.894 16.566c0.884-0.904 1.37-2.118 1.372-3.37l-5.246-0.009c0-0.095 0.037-0.2 0.122-0.287l3.752 3.666zM15.266 13.191c0-0.97-0.287-1.883-0.784-2.644l-4.393 2.867c-0.046-0.070-0.069-0.15-0.069-0.223h5.246zM12.285 14.604h1.302v-5.246h-1.302v5.246zM13.587 14.604c1.343 0 2.618-0.548 3.547-1.501l-3.756-3.662c0.044-0.045 0.117-0.083 0.209-0.083v5.246zM17.134 13.103c0.927-0.951 1.436-2.226 1.436-3.543h-5.246c0-0.032 0.012-0.076 0.053-0.119l3.756 3.662zM18.571 9.56c0-1.317-0.509-2.592-1.436-3.543l-3.756 3.662c-0.042-0.043-0.053-0.087-0.053-0.119h5.246zM17.134 6.017c-0.929-0.953-2.204-1.501-3.547-1.501v5.246c-0.091 0-0.165-0.038-0.209-0.083l3.756-3.662z"></path>
<path d="M3.699 29.639h-0.978l2.197-6.104h1.064l2.197 6.104h-0.978l-1.726-4.995h-0.048l-1.729 4.995zM3.863 27.249h3.171v0.775h-3.171v-0.775zM13.843 25.52h-0.93c-0.036-0.199-0.102-0.374-0.2-0.525s-0.217-0.279-0.358-0.384c-0.141-0.105-0.299-0.185-0.474-0.238-0.173-0.054-0.357-0.080-0.551-0.080-0.352 0-0.667 0.088-0.945 0.265-0.276 0.177-0.495 0.436-0.656 0.778-0.159 0.342-0.238 0.759-0.238 1.252 0 0.497 0.080 0.916 0.238 1.258 0.161 0.342 0.381 0.6 0.659 0.775s0.591 0.262 0.939 0.262c0.193 0 0.376-0.026 0.548-0.077 0.175-0.054 0.333-0.132 0.474-0.235s0.26-0.23 0.358-0.379c0.099-0.151 0.168-0.324 0.206-0.519l0.93 0.003c-0.050 0.3-0.146 0.576-0.289 0.829-0.141 0.25-0.323 0.467-0.545 0.65-0.221 0.181-0.473 0.321-0.757 0.42s-0.594 0.149-0.93 0.149c-0.529 0-0.999-0.125-1.413-0.376-0.413-0.252-0.739-0.613-0.978-1.082-0.236-0.469-0.355-1.028-0.355-1.678 0-0.652 0.119-1.211 0.358-1.678 0.238-0.469 0.564-0.829 0.978-1.079 0.413-0.252 0.883-0.379 1.41-0.379 0.324 0 0.626 0.047 0.906 0.14 0.282 0.091 0.536 0.227 0.76 0.405 0.225 0.177 0.41 0.393 0.557 0.65 0.147 0.254 0.246 0.545 0.298 0.873z"></path>
</symbol>
<symbol id="icon-Horizontal-container" viewBox="0 0 41 32">
<path fill="none" stroke="#101828" style="stroke: var(--color1, #101828)" stroke-linejoin="round" stroke-linecap="round" stroke-miterlimit="4" stroke-width="0.9443" d="M24.219 7.956h1.049c0.278 0 0.545-0.111 0.742-0.307s0.307-0.464 0.307-0.742c0-0.278-0.111-0.545-0.307-0.742s-0.464-0.307-0.742-0.307h-1.049v3.497M24.219 12.153v2.798h0.699c0.371 0 0.727-0.147 0.989-0.41s0.41-0.618 0.41-0.989c0-0.371-0.147-0.727-0.41-0.989s-0.618-0.41-0.989-0.41h-0.699zM14.426 3.76c0 0.371 0.147 0.727 0.41 0.989s0.618 0.41 0.989 0.41c0.371 0 0.727-0.147 0.989-0.41s0.41-0.618 0.41-0.989c0-0.371-0.147-0.727-0.41-0.989s-0.618-0.41-0.989-0.41c-0.371 0-0.727 0.147-0.989 0.41s-0.41 0.618-0.41 0.989z"></path>
<path fill="none" stroke="#101828" style="stroke: var(--color1, #101828)" stroke-linejoin="round" stroke-linecap="round" stroke-miterlimit="4" stroke-width="0.9443" d="M15.825 5.158v2.098c0 0.186 0.074 0.363 0.205 0.495s0.309 0.205 0.495 0.205h2.098M18.623 7.956v4.896c0 0.185 0.074 0.363 0.205 0.495s0.309 0.205 0.495 0.205h2.098M18.623 7.956h2.798"></path>
<path d="M1.322 29.639h-0.978l2.197-6.104h1.064l2.197 6.104h-0.978l-1.726-4.995h-0.048l-1.729 4.995zM1.485 27.249h3.171v0.775h-3.171v-0.775zM9.512 27.741v-2.68h0.894v4.578h-0.876v-0.793h-0.048c-0.105 0.244-0.274 0.448-0.507 0.611-0.23 0.161-0.518 0.241-0.861 0.241-0.294 0-0.554-0.065-0.781-0.194-0.225-0.131-0.401-0.325-0.531-0.581-0.127-0.256-0.191-0.573-0.191-0.951v-2.912h0.891v2.805c0 0.312 0.086 0.56 0.259 0.745s0.397 0.277 0.674 0.277c0.167 0 0.333-0.042 0.498-0.125 0.167-0.083 0.305-0.21 0.414-0.378 0.111-0.169 0.166-0.384 0.164-0.644zM13.74 25.061v0.715h-2.501v-0.715h2.501zM11.91 23.964h0.891v4.331c0 0.173 0.026 0.303 0.077 0.39 0.052 0.085 0.118 0.144 0.2 0.176 0.083 0.030 0.174 0.045 0.271 0.045 0.072 0 0.134-0.005 0.188-0.015s0.095-0.018 0.125-0.024l0.161 0.736c-0.052 0.020-0.125 0.040-0.221 0.060-0.095 0.022-0.215 0.034-0.358 0.036-0.235 0.004-0.453-0.038-0.656-0.125s-0.367-0.223-0.492-0.405c-0.125-0.183-0.188-0.412-0.188-0.689v-4.516zM16.605 29.732c-0.429 0-0.804-0.098-1.124-0.295s-0.568-0.472-0.745-0.826c-0.177-0.354-0.265-0.767-0.265-1.24 0-0.475 0.088-0.89 0.265-1.246s0.425-0.632 0.745-0.829c0.32-0.197 0.694-0.295 1.124-0.295s0.804 0.098 1.124 0.295c0.32 0.197 0.568 0.473 0.745 0.829s0.265 0.771 0.265 1.246c0 0.473-0.088 0.886-0.265 1.24s-0.425 0.629-0.745 0.826c-0.32 0.197-0.695 0.295-1.124 0.295zM16.608 28.984c0.278 0 0.509-0.074 0.692-0.221s0.318-0.343 0.405-0.587c0.089-0.244 0.134-0.514 0.134-0.808 0-0.292-0.045-0.56-0.134-0.805-0.087-0.246-0.223-0.444-0.405-0.593s-0.413-0.224-0.692-0.224c-0.28 0-0.513 0.075-0.697 0.224-0.183 0.149-0.319 0.347-0.408 0.593-0.087 0.244-0.131 0.513-0.131 0.805 0 0.294 0.044 0.563 0.131 0.808 0.089 0.244 0.226 0.44 0.408 0.587 0.185 0.147 0.417 0.221 0.697 0.221zM19.734 29.639v-4.578h0.855v0.745h0.057c0.095-0.252 0.251-0.449 0.468-0.59 0.217-0.143 0.476-0.215 0.778-0.215 0.306 0 0.562 0.072 0.769 0.215 0.209 0.143 0.363 0.34 0.462 0.59h0.048c0.109-0.244 0.283-0.439 0.522-0.584 0.238-0.147 0.523-0.221 0.852-0.221 0.415 0 0.754 0.13 1.016 0.39 0.264 0.26 0.396 0.653 0.396 1.177v3.070h-0.891v-2.987c0-0.31-0.084-0.535-0.253-0.674s-0.371-0.209-0.605-0.209c-0.29 0-0.516 0.089-0.677 0.268-0.161 0.177-0.241 0.404-0.241 0.683v2.918h-0.888v-3.043c0-0.248-0.077-0.448-0.232-0.599s-0.357-0.227-0.605-0.227c-0.169 0-0.325 0.045-0.468 0.134-0.141 0.087-0.255 0.21-0.343 0.367-0.085 0.157-0.128 0.339-0.128 0.545v2.823h-0.891zM28.485 29.741c-0.29 0-0.552-0.054-0.787-0.161-0.235-0.109-0.42-0.267-0.557-0.474-0.135-0.207-0.203-0.46-0.203-0.76 0-0.258 0.050-0.471 0.149-0.638s0.233-0.299 0.402-0.396c0.169-0.097 0.358-0.171 0.566-0.221s0.421-0.087 0.638-0.113c0.274-0.032 0.497-0.058 0.668-0.077 0.171-0.022 0.295-0.057 0.373-0.104s0.116-0.125 0.116-0.232v-0.021c0-0.26-0.074-0.462-0.221-0.605-0.145-0.143-0.362-0.215-0.65-0.215-0.3 0-0.537 0.067-0.709 0.2-0.171 0.131-0.289 0.277-0.355 0.438l-0.838-0.191c0.099-0.278 0.244-0.503 0.435-0.674 0.193-0.173 0.414-0.298 0.665-0.376 0.25-0.080 0.514-0.119 0.79-0.119 0.183 0 0.377 0.022 0.581 0.066 0.207 0.042 0.399 0.119 0.578 0.233 0.181 0.113 0.329 0.275 0.444 0.486 0.115 0.209 0.173 0.48 0.173 0.814v3.040h-0.87v-0.626h-0.036c-0.058 0.115-0.144 0.229-0.259 0.34s-0.263 0.204-0.444 0.277c-0.181 0.073-0.397 0.11-0.65 0.11zM28.678 29.025c0.246 0 0.457-0.049 0.632-0.146 0.177-0.097 0.311-0.225 0.402-0.381 0.093-0.159 0.14-0.329 0.14-0.51v-0.59c-0.032 0.032-0.093 0.062-0.185 0.089-0.089 0.026-0.192 0.049-0.307 0.069-0.115 0.018-0.228 0.035-0.337 0.051-0.109 0.014-0.201 0.026-0.274 0.036-0.173 0.022-0.331 0.059-0.474 0.11-0.141 0.052-0.254 0.126-0.34 0.224-0.083 0.095-0.125 0.223-0.125 0.382 0 0.221 0.081 0.387 0.244 0.501 0.163 0.111 0.371 0.167 0.623 0.167zM34.068 25.061v0.715h-2.501v-0.715h2.501zM32.238 23.964h0.891v4.331c0 0.173 0.026 0.303 0.077 0.39 0.052 0.085 0.118 0.144 0.2 0.176 0.083 0.030 0.174 0.045 0.271 0.045 0.072 0 0.134-0.005 0.188-0.015s0.095-0.018 0.125-0.024l0.161 0.736c-0.052 0.020-0.125 0.040-0.221 0.060-0.095 0.022-0.215 0.034-0.358 0.036-0.234 0.004-0.453-0.038-0.656-0.125s-0.367-0.223-0.492-0.405c-0.125-0.183-0.188-0.412-0.188-0.689v-4.516zM35.054 29.639v-4.578h0.891v4.578h-0.891zM35.504 24.355c-0.155 0-0.288-0.052-0.399-0.155-0.109-0.105-0.164-0.23-0.164-0.376 0-0.147 0.055-0.272 0.164-0.376 0.111-0.105 0.244-0.158 0.399-0.158s0.287 0.053 0.396 0.158c0.111 0.103 0.167 0.229 0.167 0.376 0 0.145-0.056 0.27-0.167 0.376-0.109 0.103-0.241 0.155-0.396 0.155zM39.073 29.732c-0.443 0-0.825-0.1-1.145-0.301-0.318-0.203-0.562-0.482-0.733-0.838s-0.256-0.763-0.256-1.222c0-0.465 0.087-0.875 0.262-1.231 0.175-0.358 0.421-0.637 0.739-0.837s0.692-0.301 1.124-0.301c0.348 0 0.658 0.065 0.93 0.194 0.272 0.127 0.492 0.306 0.659 0.537 0.169 0.23 0.269 0.5 0.301 0.808h-0.867c-0.048-0.215-0.157-0.399-0.328-0.554-0.169-0.155-0.395-0.233-0.68-0.233-0.248 0-0.466 0.066-0.653 0.197-0.185 0.129-0.329 0.314-0.432 0.554-0.103 0.238-0.155 0.521-0.155 0.847 0 0.334 0.051 0.622 0.152 0.864s0.244 0.43 0.429 0.563c0.187 0.133 0.406 0.2 0.659 0.2 0.169 0 0.322-0.031 0.459-0.092 0.139-0.064 0.255-0.154 0.349-0.271 0.095-0.117 0.162-0.258 0.2-0.423h0.867c-0.032 0.296-0.128 0.56-0.289 0.793s-0.377 0.415-0.647 0.548c-0.268 0.133-0.583 0.2-0.945 0.2z"></path>
</symbol>
<symbol id="icon-Horizontal-container-1" viewBox="0 0 31 32">
<path fill="none" stroke="#101828" style="stroke: var(--color1, #101828)" stroke-linejoin="round" stroke-linecap="round" stroke-miterlimit="4" stroke-width="0.9443" d="M20.372 10.754v-8.393c-3.369 3.213-3.513 5.819-3.497 8.393h3.497zM20.372 10.754v4.197h-0.699v-2.098M12.678 3.060v11.891M10.579 3.060v2.098c0 0.557 0.221 1.090 0.615 1.484s0.927 0.615 1.484 0.615c0.557 0 1.090-0.221 1.484-0.615s0.615-0.927 0.615-1.484v-2.098"></path>
<path d="M0.757 29.639v-6.104h0.921v2.915h0.075l2.56-2.915h1.159l-2.462 2.748 2.471 3.356h-1.109l-1.973-2.727-0.721 0.829v1.899h-0.921zM6.546 29.639v-4.578h0.891v4.578h-0.891zM6.996 24.355c-0.155 0-0.288-0.052-0.399-0.155-0.109-0.105-0.164-0.23-0.164-0.376 0-0.147 0.055-0.272 0.164-0.376 0.111-0.105 0.244-0.158 0.399-0.158s0.287 0.053 0.396 0.158c0.111 0.103 0.167 0.229 0.167 0.376 0 0.145-0.056 0.27-0.167 0.376-0.109 0.103-0.241 0.155-0.396 0.155zM10.773 25.061v0.715h-2.501v-0.715h2.501zM8.943 23.964h0.891v4.331c0 0.173 0.026 0.303 0.078 0.39 0.052 0.085 0.118 0.144 0.2 0.176 0.083 0.030 0.174 0.045 0.271 0.045 0.072 0 0.134-0.005 0.188-0.015s0.095-0.018 0.125-0.024l0.161 0.736c-0.052 0.020-0.125 0.040-0.221 0.060-0.095 0.022-0.215 0.034-0.358 0.036-0.234 0.004-0.453-0.038-0.656-0.125s-0.367-0.223-0.492-0.405c-0.125-0.183-0.188-0.412-0.188-0.689v-4.516zM13.638 29.732c-0.443 0-0.825-0.1-1.145-0.301-0.318-0.203-0.562-0.482-0.733-0.838s-0.256-0.763-0.256-1.222c0-0.465 0.087-0.875 0.262-1.231 0.175-0.358 0.421-0.637 0.739-0.837s0.693-0.301 1.124-0.301c0.348 0 0.658 0.065 0.93 0.194 0.272 0.127 0.492 0.306 0.659 0.537 0.169 0.23 0.269 0.5 0.301 0.808h-0.867c-0.048-0.215-0.157-0.399-0.328-0.554-0.169-0.155-0.395-0.233-0.68-0.233-0.248 0-0.466 0.066-0.653 0.197-0.185 0.129-0.329 0.314-0.432 0.554-0.103 0.238-0.155 0.521-0.155 0.847 0 0.334 0.051 0.622 0.152 0.864s0.244 0.43 0.429 0.563c0.187 0.133 0.406 0.2 0.659 0.2 0.169 0 0.322-0.031 0.459-0.092 0.139-0.064 0.255-0.154 0.349-0.271 0.095-0.117 0.162-0.258 0.2-0.423h0.867c-0.032 0.296-0.128 0.56-0.289 0.793s-0.377 0.415-0.647 0.548c-0.268 0.133-0.583 0.2-0.945 0.2zM17.363 26.921v2.718h-0.891v-6.104h0.879v2.271h0.057c0.107-0.246 0.271-0.442 0.492-0.587s0.509-0.218 0.864-0.218c0.314 0 0.588 0.065 0.823 0.194 0.236 0.129 0.419 0.322 0.548 0.578 0.131 0.254 0.197 0.572 0.197 0.954v2.912h-0.891v-2.805c0-0.336-0.086-0.596-0.259-0.781-0.173-0.187-0.413-0.28-0.721-0.28-0.211 0-0.399 0.045-0.566 0.134-0.165 0.089-0.295 0.221-0.39 0.393-0.093 0.171-0.14 0.378-0.14 0.62zM23.494 29.732c-0.451 0-0.84-0.096-1.165-0.289-0.324-0.195-0.574-0.468-0.751-0.82-0.175-0.354-0.262-0.768-0.262-1.243 0-0.469 0.087-0.882 0.262-1.24 0.177-0.358 0.423-0.637 0.739-0.837 0.318-0.201 0.69-0.301 1.115-0.301 0.258 0 0.509 0.043 0.751 0.128s0.46 0.22 0.653 0.402c0.193 0.183 0.345 0.42 0.456 0.712 0.111 0.29 0.167 0.643 0.167 1.058v0.316h-3.639v-0.668h2.766c0-0.235-0.048-0.442-0.143-0.623-0.095-0.183-0.23-0.327-0.402-0.432-0.171-0.105-0.372-0.158-0.602-0.158-0.25 0-0.469 0.062-0.656 0.185-0.185 0.121-0.328 0.28-0.429 0.477-0.099 0.195-0.149 0.406-0.149 0.635v0.522c0 0.306 0.054 0.566 0.161 0.781 0.109 0.215 0.261 0.379 0.456 0.492 0.195 0.111 0.422 0.167 0.683 0.167 0.169 0 0.323-0.024 0.462-0.072 0.139-0.050 0.259-0.123 0.361-0.221s0.179-0.218 0.233-0.361l0.844 0.152c-0.068 0.248-0.189 0.466-0.364 0.653-0.173 0.185-0.39 0.329-0.653 0.432-0.26 0.101-0.557 0.152-0.891 0.152zM27.339 26.921v2.718h-0.891v-4.578h0.855v0.745h0.057c0.105-0.242 0.27-0.437 0.495-0.584 0.227-0.147 0.512-0.221 0.855-0.221 0.312 0 0.585 0.066 0.82 0.197 0.235 0.129 0.416 0.322 0.545 0.578s0.194 0.573 0.194 0.951v2.912h-0.891v-2.805c0-0.332-0.086-0.591-0.259-0.778-0.173-0.189-0.41-0.283-0.712-0.283-0.207 0-0.39 0.045-0.551 0.134-0.159 0.089-0.285 0.221-0.379 0.393-0.091 0.171-0.137 0.378-0.137 0.62z"></path>
</symbol>
<symbol id="icon-Container" viewBox="0 0 17 32">
<path fill="none" stroke="#101828" style="stroke: var(--color1, #101828)" stroke-linejoin="round" stroke-linecap="round" stroke-miterlimit="4" stroke-width="0.9443" d="M12.59 13.902h-8.393c-1.163 0-2.098-0.936-2.098-2.098v-5.246c0-1.163 0.936-2.098 2.098-2.098h8.393c1.162 0 2.098 0.936 2.098 2.098v5.246c0 1.162-0.936 2.098-2.098 2.098z"></path>
<path fill="none" stroke="#101828" style="stroke: var(--color1, #101828)" stroke-linejoin="round" stroke-linecap="round" stroke-miterlimit="4" stroke-width="0.9443" d="M6.295 16h4.197"></path>
<path fill="none" stroke="#101828" style="stroke: var(--color1, #101828)" stroke-linejoin="round" stroke-linecap="round" stroke-miterlimit="4" stroke-width="0.9443" d="M8.393 4.459l3.148-3.148"></path>
<path fill="none" stroke="#101828" style="stroke: var(--color1, #101828)" stroke-linejoin="round" stroke-linecap="round" stroke-miterlimit="4" stroke-width="0.9443" d="M8.393 4.459l-3.148-3.148"></path>
<path d="M3.091 24.328v-0.793h4.724v0.793h-1.905v5.311h-0.918v-5.311h-1.902zM9.393 23.535l1.699 4.972h0.069l1.699-4.972h0.995l-2.197 6.104h-1.064l-2.197-6.104h0.995z"></path>
</symbol>
<symbol id="icon-Container-1" viewBox="0 0 47 32">
<path fill="none" stroke="#101828" style="stroke: var(--color1, #101828)" stroke-linejoin="round" stroke-linecap="round" stroke-miterlimit="4" stroke-width="1.0492" d="M18.011 3.060l1.749 1.749M24.656 4.809c-0.651-0.638-1.529-0.994-2.441-0.989s-1.786 0.369-2.431 1.014-1.009 1.519-1.014 2.431c-0.005 0.912 0.351 1.789 0.989 2.441M25.705 3.76l-6.995 6.995M25.005 12.153v0.007M22.208 11.454v0.007M24.306 9.355v0.007M26.404 7.257v0.007M22.907 14.251v0.007M27.104 10.055v0.007M29.202 7.956v0.007"></path>
<path d="M4.004 25.139c-0.032-0.282-0.163-0.501-0.393-0.656-0.231-0.157-0.521-0.235-0.87-0.235-0.25 0-0.467 0.040-0.65 0.119-0.183 0.077-0.325 0.185-0.426 0.322-0.099 0.135-0.149 0.289-0.149 0.462 0 0.145 0.034 0.27 0.101 0.376 0.070 0.105 0.16 0.194 0.271 0.265 0.113 0.070 0.234 0.128 0.364 0.176 0.129 0.046 0.253 0.083 0.373 0.113l0.596 0.155c0.195 0.048 0.394 0.112 0.599 0.194s0.394 0.189 0.569 0.322c0.175 0.133 0.316 0.298 0.423 0.495 0.109 0.197 0.164 0.432 0.164 0.706 0 0.346-0.089 0.653-0.268 0.921-0.177 0.268-0.434 0.48-0.772 0.635-0.336 0.155-0.742 0.233-1.219 0.233-0.457 0-0.852-0.073-1.186-0.218s-0.595-0.351-0.784-0.617c-0.189-0.268-0.293-0.586-0.313-0.954h0.924c0.018 0.221 0.089 0.404 0.215 0.551 0.127 0.145 0.289 0.253 0.486 0.325 0.199 0.070 0.416 0.104 0.653 0.104 0.26 0 0.492-0.041 0.695-0.122 0.205-0.083 0.366-0.199 0.483-0.346 0.117-0.149 0.176-0.323 0.176-0.522 0-0.181-0.052-0.329-0.155-0.444-0.101-0.115-0.239-0.211-0.414-0.286-0.173-0.076-0.369-0.142-0.587-0.2l-0.721-0.197c-0.489-0.133-0.876-0.329-1.162-0.587-0.284-0.258-0.426-0.6-0.426-1.025 0-0.352 0.095-0.659 0.286-0.921s0.449-0.466 0.775-0.611c0.326-0.147 0.694-0.221 1.103-0.221 0.413 0 0.778 0.073 1.094 0.218 0.318 0.145 0.568 0.345 0.751 0.599 0.183 0.252 0.278 0.542 0.286 0.87h-0.888zM6.896 26.921v2.718h-0.891v-6.104h0.879v2.271h0.057c0.107-0.246 0.271-0.442 0.492-0.587s0.509-0.218 0.864-0.218c0.314 0 0.588 0.065 0.823 0.194 0.236 0.129 0.419 0.322 0.548 0.578 0.131 0.254 0.197 0.572 0.197 0.954v2.912h-0.891v-2.805c0-0.336-0.086-0.596-0.259-0.781-0.173-0.187-0.413-0.28-0.721-0.28-0.211 0-0.399 0.045-0.566 0.134-0.165 0.089-0.295 0.221-0.391 0.393-0.093 0.171-0.14 0.378-0.14 0.62zM12.982 29.732c-0.429 0-0.804-0.098-1.124-0.295s-0.568-0.472-0.745-0.826c-0.177-0.354-0.265-0.767-0.265-1.24 0-0.475 0.088-0.89 0.265-1.246s0.425-0.632 0.745-0.829c0.32-0.197 0.694-0.295 1.124-0.295s0.804 0.098 1.124 0.295c0.32 0.197 0.568 0.473 0.745 0.829s0.265 0.771 0.265 1.246c0 0.473-0.088 0.886-0.265 1.24s-0.425 0.629-0.745 0.826c-0.32 0.197-0.694 0.295-1.124 0.295zM12.986 28.984c0.278 0 0.509-0.074 0.691-0.221s0.318-0.343 0.405-0.587c0.089-0.244 0.134-0.514 0.134-0.808 0-0.292-0.045-0.56-0.134-0.805-0.087-0.246-0.223-0.444-0.405-0.593s-0.413-0.224-0.691-0.224c-0.28 0-0.513 0.075-0.697 0.224-0.183 0.149-0.319 0.347-0.408 0.593-0.087 0.244-0.131 0.513-0.131 0.805 0 0.294 0.044 0.563 0.131 0.808 0.089 0.244 0.226 0.44 0.408 0.587 0.185 0.147 0.417 0.221 0.697 0.221zM16.965 29.639l-1.347-4.578h0.921l0.897 3.362h0.045l0.9-3.362h0.921l0.894 3.347h0.045l0.891-3.347h0.921l-1.344 4.578h-0.909l-0.93-3.305h-0.069l-0.93 3.305h-0.906zM24.732 29.732c-0.451 0-0.84-0.096-1.165-0.289-0.324-0.195-0.574-0.468-0.751-0.82-0.175-0.354-0.262-0.768-0.262-1.243 0-0.469 0.087-0.882 0.262-1.24 0.177-0.358 0.423-0.637 0.739-0.837 0.318-0.201 0.69-0.301 1.115-0.301 0.258 0 0.509 0.043 0.751 0.128s0.46 0.22 0.653 0.402c0.193 0.183 0.345 0.42 0.456 0.712 0.111 0.29 0.167 0.643 0.167 1.058v0.316h-3.639v-0.668h2.766c0-0.235-0.048-0.442-0.143-0.623-0.095-0.183-0.23-0.327-0.402-0.432-0.171-0.105-0.372-0.158-0.602-0.158-0.25 0-0.469 0.062-0.656 0.185-0.185 0.121-0.328 0.28-0.429 0.477-0.099 0.195-0.149 0.406-0.149 0.635v0.522c0 0.306 0.054 0.566 0.161 0.781 0.109 0.215 0.261 0.379 0.456 0.492 0.195 0.111 0.422 0.167 0.683 0.167 0.169 0 0.323-0.024 0.462-0.072 0.139-0.050 0.259-0.123 0.361-0.221s0.179-0.218 0.233-0.361l0.844 0.152c-0.068 0.248-0.189 0.466-0.364 0.653-0.173 0.185-0.39 0.329-0.653 0.432-0.26 0.101-0.557 0.152-0.891 0.152zM27.685 29.639v-4.578h0.861v0.727h0.048c0.083-0.246 0.23-0.44 0.441-0.581 0.213-0.143 0.453-0.215 0.721-0.215 0.056 0 0.121 0.002 0.197 0.006 0.077 0.004 0.138 0.009 0.182 0.015v0.852c-0.036-0.010-0.099-0.021-0.191-0.033-0.091-0.014-0.183-0.021-0.274-0.021-0.211 0-0.398 0.045-0.563 0.134-0.163 0.087-0.292 0.21-0.387 0.367-0.095 0.155-0.143 0.332-0.143 0.531v2.796h-0.891zM32.953 23.249l-1.967 7.308h-0.796l1.967-7.309h0.796zM35.001 29.639l-1.693-6.104h0.969l1.189 4.727h0.057l1.237-4.727h0.96l1.237 4.73h0.057l1.186-4.73h0.972l-1.696 6.104h-0.927l-1.285-4.572h-0.048l-1.285 4.572h-0.93zM46.778 25.52h-0.93c-0.036-0.199-0.102-0.374-0.2-0.525s-0.217-0.279-0.358-0.384c-0.141-0.105-0.299-0.185-0.474-0.238-0.173-0.054-0.357-0.080-0.551-0.080-0.352 0-0.667 0.088-0.945 0.265-0.276 0.177-0.495 0.436-0.656 0.778-0.159 0.342-0.238 0.759-0.238 1.252 0 0.497 0.079 0.916 0.238 1.258 0.161 0.342 0.381 0.6 0.659 0.775s0.591 0.262 0.939 0.262c0.193 0 0.376-0.026 0.548-0.077 0.175-0.054 0.333-0.132 0.474-0.235s0.26-0.23 0.358-0.379c0.099-0.151 0.168-0.324 0.206-0.519l0.93 0.003c-0.050 0.3-0.146 0.576-0.289 0.829-0.141 0.25-0.323 0.467-0.545 0.65-0.221 0.181-0.473 0.321-0.757 0.42s-0.594 0.149-0.93 0.149c-0.529 0-0.999-0.125-1.413-0.376-0.413-0.252-0.739-0.613-0.978-1.082-0.236-0.469-0.355-1.028-0.355-1.678 0-0.652 0.119-1.211 0.358-1.678 0.238-0.469 0.564-0.829 0.978-1.079 0.413-0.252 0.883-0.379 1.41-0.379 0.324 0 0.626 0.047 0.906 0.14 0.282 0.091 0.535 0.227 0.76 0.405 0.225 0.177 0.41 0.393 0.557 0.65 0.147 0.254 0.246 0.545 0.298 0.873z"></path>
</symbol>
<symbol id="icon-Button-container" viewBox="0 0 22 32">
<path d="M1.281 0.884h6.096c0.052 0 0.1-0.020 0.136-0.055l0.586-0.571c0.17-0.166 0.396-0.257 0.637-0.257h9.243c0.43 0 0.83 0.209 1.069 0.558l1.108 1.621c0.157 0.23 0.172 0.524 0.038 0.768s-0.393 0.395-0.677 0.395h-4.764v0.47h2.44c0.647 0 1.229 0.375 1.482 0.955l1.429 3.267 1.251 0.488c0.668 0.261 1.1 0.883 1.1 1.585v3.025c0 0.451-0.376 0.818-0.839 0.818h-1.456c-0.169 1.001-1.063 1.768-2.137 1.768s-1.968-0.767-2.137-1.768h-7.96c-0.169 1.001-1.063 1.768-2.137 1.768s-1.968-0.767-2.137-1.768h-2.909c-0.411 0-0.746-0.326-0.746-0.727v-11.090c0-0.689 0.575-1.25 1.281-1.25zM18.024 15.029c0.804 0 1.458-0.638 1.458-1.423s-0.654-1.423-1.458-1.423c-0.804 0-1.458 0.638-1.458 1.423s0.654 1.423 1.458 1.423zM14.754 13.261h1.133c0.003-0.017 0.007-0.034 0.010-0.051 0.002-0.012 0.004-0.023 0.007-0.035 0.006-0.027 0.012-0.054 0.019-0.081 0.001-0.006 0.003-0.011 0.004-0.017 0.009-0.032 0.018-0.064 0.028-0.096 0.003-0.009 0.006-0.018 0.009-0.028 0.007-0.022 0.015-0.044 0.023-0.066 0.005-0.012 0.009-0.023 0.014-0.035 0.007-0.019 0.015-0.038 0.023-0.057 0.005-0.012 0.011-0.025 0.016-0.037 0.008-0.018 0.016-0.035 0.024-0.053 0.006-0.012 0.012-0.025 0.019-0.037 0.008-0.017 0.018-0.034 0.027-0.051 0.006-0.012 0.013-0.024 0.020-0.037 0.009-0.017 0.019-0.033 0.029-0.049 0.007-0.012 0.014-0.023 0.021-0.035 0.011-0.017 0.021-0.033 0.033-0.049 0.007-0.011 0.014-0.022 0.022-0.032 0.012-0.017 0.025-0.035 0.038-0.052 0.006-0.009 0.013-0.018 0.020-0.027 0.018-0.023 0.035-0.044 0.054-0.066 0.003-0.003 0.005-0.007 0.008-0.010 0.021-0.025 0.043-0.049 0.065-0.073 0.007-0.007 0.014-0.014 0.021-0.022 0.016-0.016 0.031-0.033 0.047-0.049 0.009-0.009 0.018-0.017 0.027-0.026 0.014-0.014 0.029-0.028 0.044-0.041 0.010-0.009 0.020-0.018 0.030-0.027 0.015-0.013 0.029-0.025 0.044-0.038l0.032-0.026c0.015-0.012 0.030-0.024 0.046-0.035 0.011-0.008 0.022-0.017 0.034-0.025 0.016-0.011 0.031-0.022 0.048-0.033 0.011-0.007 0.023-0.015 0.034-0.023 0.017-0.011 0.034-0.022 0.051-0.032 0.011-0.007 0.022-0.014 0.033-0.020 0.019-0.011 0.038-0.022 0.057-0.032 0.010-0.005 0.020-0.011 0.029-0.016 0.027-0.014 0.055-0.028 0.083-0.041 0.002-0.001 0.004-0.002 0.006-0.003 0.030-0.014 0.061-0.028 0.091-0.040 0.010-0.004 0.020-0.008 0.030-0.012 0.021-0.008 0.042-0.017 0.064-0.025 0.012-0.004 0.025-0.008 0.037-0.013 0.020-0.007 0.039-0.013 0.059-0.019 0.013-0.004 0.027-0.008 0.040-0.012 0.019-0.006 0.038-0.011 0.058-0.016 0.014-0.004 0.028-0.007 0.042-0.011 0.019-0.005 0.038-0.009 0.058-0.013 0.014-0.003 0.028-0.006 0.043-0.009 0.020-0.004 0.040-0.007 0.060-0.010 0.014-0.003 0.028-0.005 0.042-0.007 0.021-0.003 0.042-0.006 0.063-0.008 0.013-0.001 0.027-0.003 0.040-0.004 0.023-0.002 0.047-0.004 0.070-0.005 0.012-0.001 0.023-0.002 0.035-0.002 0.035-0.002 0.070-0.003 0.106-0.003s0.071 0.001 0.106 0.003c0.012 0 0.023 0.001 0.035 0.002 0.024 0.001 0.047 0.003 0.070 0.005 0.014 0.001 0.027 0.003 0.040 0.004 0.021 0.002 0.042 0.005 0.063 0.008 0.014 0.002 0.028 0.004 0.043 0.007 0.020 0.003 0.040 0.007 0.060 0.010 0.014 0.003 0.029 0.006 0.043 0.009 0.020 0.004 0.039 0.008 0.058 0.013 0.014 0.003 0.028 0.007 0.042 0.011 0.019 0.005 0.038 0.011 0.058 0.016 0.014 0.004 0.027 0.008 0.040 0.012 0.020 0.006 0.039 0.013 0.059 0.019 0.012 0.004 0.025 0.008 0.037 0.013 0.021 0.008 0.043 0.016 0.064 0.025 0.010 0.004 0.020 0.008 0.030 0.012 0.031 0.013 0.061 0.026 0.091 0.040 0.002 0.001 0.004 0.002 0.006 0.003 0.028 0.013 0.055 0.027 0.083 0.041 0.010 0.005 0.019 0.011 0.029 0.016 0.019 0.011 0.038 0.021 0.057 0.032 0.011 0.007 0.022 0.014 0.033 0.020 0.017 0.011 0.034 0.021 0.051 0.032 0.011 0.007 0.023 0.015 0.034 0.023 0.016 0.011 0.032 0.022 0.048 0.033 0.011 0.008 0.023 0.016 0.034 0.025 0.015 0.012 0.031 0.023 0.046 0.035l0.032 0.026c0.015 0.012 0.030 0.025 0.044 0.038 0.010 0.009 0.020 0.018 0.030 0.027 0.015 0.014 0.030 0.027 0.044 0.041 0.009 0.009 0.018 0.017 0.027 0.026 0.016 0.016 0.032 0.032 0.047 0.049 0.007 0.007 0.014 0.014 0.021 0.022 0.022 0.024 0.044 0.048 0.065 0.073 0.003 0.003 0.005 0.007 0.008 0.010 0.018 0.022 0.036 0.044 0.053 0.066 0.007 0.009 0.013 0.018 0.020 0.027 0.013 0.017 0.026 0.034 0.038 0.052 0.007 0.011 0.014 0.021 0.022 0.032 0.011 0.017 0.022 0.033 0.033 0.049 0.007 0.012 0.014 0.023 0.021 0.035 0.010 0.016 0.020 0.033 0.029 0.049 0.007 0.012 0.014 0.024 0.020 0.037 0.009 0.017 0.018 0.034 0.027 0.051 0.006 0.012 0.012 0.025 0.019 0.037 0.008 0.018 0.016 0.035 0.024 0.053 0.006 0.012 0.011 0.024 0.016 0.037 0.008 0.019 0.016 0.038 0.023 0.057 0.005 0.012 0.009 0.023 0.014 0.035 0.008 0.022 0.016 0.044 0.023 0.066 0.003 0.009 0.006 0.018 0.009 0.028 0.010 0.031 0.019 0.063 0.028 0.096 0.002 0.006 0.003 0.011 0.004 0.017 0.007 0.027 0.013 0.054 0.019 0.081 0.003 0.012 0.005 0.023 0.007 0.035 0.003 0.017 0.007 0.034 0.010 0.051h1.456c0.072 0 0.131-0.057 0.131-0.128v-1.447h-0.552v-0.691h0.552v-0.887c0-0.418-0.257-0.789-0.655-0.944l-1.325-0.517h-5.015v4.614zM14.754 7.956h4.547l-1.276-2.918c-0.142-0.325-0.469-0.536-0.831-0.536h-2.44v3.453zM5.791 15.029c0.804 0 1.458-0.638 1.458-1.423s-0.654-1.423-1.458-1.423c-0.025 0-0.050 0.001-0.075 0.002-0.67 0.033-1.222 0.51-1.354 1.134-0.005 0.023-0.009 0.047-0.013 0.070-0.007 0.047-0.012 0.095-0.015 0.143-0.001 0.024-0.002 0.049-0.002 0.073 0 0.785 0.654 1.423 1.458 1.423zM0.708 10.995h0.552v0.691h-0.552v1.538c0 0.020 0.017 0.037 0.038 0.037h2.908c0.003-0.017 0.006-0.034 0.010-0.051 0.002-0.012 0.004-0.024 0.007-0.036 0.006-0.027 0.012-0.053 0.019-0.079 0.002-0.006 0.003-0.012 0.005-0.019 0.009-0.032 0.018-0.063 0.028-0.095 0.003-0.010 0.006-0.019 0.010-0.029 0.007-0.022 0.015-0.044 0.023-0.065 0.005-0.012 0.009-0.024 0.014-0.036 0.007-0.019 0.015-0.038 0.023-0.056 0.005-0.013 0.011-0.025 0.017-0.038 0.008-0.017 0.016-0.035 0.024-0.052 0.006-0.013 0.012-0.025 0.019-0.038 0.009-0.017 0.017-0.033 0.026-0.050 0.007-0.012 0.014-0.024 0.020-0.037 0.010-0.017 0.019-0.033 0.029-0.049 0.007-0.012 0.014-0.023 0.022-0.035 0.010-0.017 0.021-0.033 0.032-0.049 0.007-0.011 0.014-0.022 0.022-0.033 0.012-0.017 0.025-0.034 0.037-0.051 0.007-0.009 0.014-0.019 0.021-0.028 0.017-0.022 0.034-0.043 0.052-0.065 0.003-0.004 0.006-0.008 0.009-0.011 0.021-0.025 0.043-0.049 0.065-0.073 0.007-0.007 0.014-0.015 0.021-0.022 0.016-0.016 0.031-0.032 0.047-0.048 0.009-0.009 0.018-0.017 0.028-0.026 0.014-0.014 0.029-0.027 0.044-0.041 0.010-0.009 0.020-0.018 0.031-0.027 0.014-0.012 0.029-0.025 0.044-0.037 0.011-0.009 0.022-0.018 0.033-0.026 0.015-0.012 0.030-0.023 0.045-0.035 0.011-0.008 0.022-0.017 0.034-0.025 0.016-0.011 0.031-0.022 0.047-0.033 0.012-0.008 0.023-0.015 0.034-0.023 0.017-0.011 0.034-0.022 0.051-0.032 0.011-0.007 0.022-0.014 0.034-0.020 0.019-0.011 0.038-0.022 0.057-0.032 0.010-0.005 0.020-0.011 0.030-0.016 0.027-0.014 0.054-0.028 0.082-0.041 0.002-0.001 0.005-0.002 0.007-0.004 0.030-0.014 0.061-0.028 0.091-0.040 0.010-0.004 0.020-0.008 0.030-0.012 0.021-0.008 0.042-0.017 0.064-0.025 0.012-0.004 0.025-0.008 0.037-0.013 0.019-0.007 0.039-0.013 0.059-0.019 0.013-0.004 0.027-0.008 0.040-0.012 0.019-0.006 0.038-0.011 0.058-0.016 0.014-0.004 0.028-0.007 0.042-0.011 0.019-0.005 0.039-0.009 0.058-0.013 0.014-0.003 0.028-0.006 0.043-0.009 0.020-0.004 0.040-0.007 0.060-0.010 0.014-0.003 0.028-0.005 0.042-0.007 0.021-0.003 0.042-0.006 0.063-0.008 0.013-0.001 0.027-0.003 0.040-0.004 0.023-0.002 0.047-0.004 0.070-0.005 0.012-0.001 0.023-0.002 0.035-0.002 0.035-0.002 0.071-0.003 0.106-0.003s0.071 0.001 0.106 0.003c0.012 0 0.023 0.001 0.035 0.002 0.023 0.001 0.047 0.003 0.070 0.005 0.014 0.001 0.027 0.003 0.041 0.004 0.021 0.002 0.042 0.005 0.063 0.008 0.014 0.002 0.028 0.004 0.042 0.007 0.020 0.003 0.040 0.007 0.060 0.010 0.014 0.003 0.029 0.006 0.043 0.009 0.020 0.004 0.039 0.008 0.058 0.013 0.014 0.003 0.028 0.007 0.042 0.011 0.019 0.005 0.038 0.011 0.058 0.016 0.013 0.004 0.027 0.008 0.040 0.012 0.020 0.006 0.039 0.013 0.059 0.019 0.012 0.004 0.025 0.008 0.037 0.013 0.021 0.008 0.043 0.016 0.064 0.025 0.010 0.004 0.020 0.008 0.030 0.012 0.031 0.013 0.061 0.026 0.091 0.040 0.003 0.001 0.005 0.002 0.007 0.004 0.028 0.013 0.055 0.027 0.082 0.041 0.010 0.005 0.020 0.011 0.030 0.016 0.019 0.011 0.038 0.021 0.057 0.032 0.011 0.007 0.022 0.014 0.034 0.020 0.017 0.010 0.034 0.021 0.051 0.032 0.011 0.007 0.023 0.015 0.034 0.023 0.016 0.011 0.032 0.022 0.047 0.033 0.011 0.008 0.023 0.016 0.034 0.025 0.015 0.012 0.031 0.023 0.045 0.035 0.011 0.009 0.022 0.017 0.033 0.026 0.015 0.012 0.030 0.025 0.044 0.037 0.010 0.009 0.021 0.018 0.031 0.027 0.015 0.014 0.029 0.027 0.044 0.041 0.009 0.009 0.018 0.017 0.027 0.026 0.016 0.016 0.032 0.032 0.047 0.048 0.007 0.007 0.014 0.014 0.021 0.022 0.022 0.024 0.044 0.048 0.065 0.073 0.003 0.004 0.006 0.007 0.008 0.011 0.018 0.022 0.036 0.043 0.053 0.066 0.007 0.009 0.014 0.018 0.020 0.027 0.013 0.017 0.026 0.034 0.038 0.052 0.007 0.011 0.014 0.022 0.022 0.032 0.011 0.016 0.022 0.033 0.032 0.049 0.007 0.012 0.014 0.023 0.021 0.035 0.010 0.016 0.020 0.033 0.029 0.049 0.007 0.012 0.014 0.024 0.020 0.037 0.009 0.017 0.018 0.034 0.027 0.051 0.006 0.012 0.012 0.025 0.018 0.037 0.008 0.018 0.016 0.035 0.024 0.053 0.006 0.012 0.011 0.024 0.016 0.037 0.008 0.019 0.016 0.038 0.023 0.057 0.005 0.012 0.009 0.023 0.014 0.035 0.008 0.022 0.016 0.044 0.023 0.067 0.003 0.009 0.006 0.018 0.009 0.027 0.010 0.031 0.019 0.064 0.028 0.096 0.001 0.005 0.002 0.010 0.003 0.015 0.007 0.027 0.014 0.055 0.020 0.082 0.003 0.011 0.005 0.022 0.006 0.034 0.003 0.017 0.007 0.035 0.010 0.052h6.117v-10.263c0-0.191 0.159-0.345 0.354-0.345h5.118c0.009 0 0.036 0 0.052-0.031s0.002-0.052-0.003-0.059l-1.108-1.621c-0.107-0.157-0.287-0.251-0.48-0.251h-9.243c-0.052 0-0.1 0.020-0.137 0.055l-0.586 0.571c-0.17 0.166-0.396 0.257-0.637 0.257h-6.096c-0.316 0-0.573 0.251-0.573 0.559v8.861z"></path>
<path d="M2.719 3.536h4.33c0.5 0 0.908 0.397 0.908 0.885v2.014c0 0.488-0.407 0.885-0.908 0.885h-4.33c-0.5 0-0.908-0.397-0.908-0.885v-2.014c0-0.488 0.407-0.885 0.908-0.885zM2.52 6.435c0 0.107 0.089 0.195 0.2 0.195h4.33c0.11 0 0.2-0.087 0.2-0.195v-2.014c0-0.107-0.090-0.195-0.2-0.195h-4.33c-0.11 0-0.2 0.087-0.2 0.195l0 2.014z"></path>
<path d="M4.372 23.222l1.818 5.321h0.073l1.818-5.321h1.065l-2.351 6.533h-1.139l-2.351-6.533h1.065zM10.957 29.863c-0.31 0-0.591-0.057-0.842-0.172-0.251-0.117-0.45-0.286-0.597-0.507-0.145-0.221-0.217-0.492-0.217-0.813 0-0.276 0.053-0.504 0.159-0.683s0.25-0.32 0.431-0.424c0.181-0.104 0.383-0.183 0.606-0.236s0.451-0.094 0.683-0.121c0.293-0.034 0.532-0.062 0.714-0.083 0.183-0.023 0.316-0.061 0.399-0.112s0.124-0.134 0.124-0.249v-0.022c0-0.279-0.079-0.494-0.236-0.648-0.155-0.153-0.387-0.23-0.695-0.23-0.321 0-0.574 0.071-0.759 0.214-0.183 0.14-0.309 0.297-0.38 0.469l-0.896-0.204c0.106-0.298 0.262-0.538 0.466-0.721 0.206-0.185 0.443-0.319 0.711-0.402 0.268-0.085 0.55-0.128 0.845-0.128 0.196 0 0.403 0.023 0.622 0.070 0.221 0.045 0.427 0.128 0.619 0.249 0.194 0.121 0.352 0.294 0.475 0.52 0.123 0.223 0.185 0.514 0.185 0.871v3.254h-0.931v-0.67h-0.038c-0.062 0.123-0.154 0.245-0.277 0.364s-0.282 0.218-0.475 0.297c-0.194 0.079-0.425 0.118-0.695 0.118zM11.165 29.097c0.264 0 0.489-0.052 0.676-0.156 0.189-0.104 0.333-0.24 0.431-0.408 0.1-0.17 0.15-0.352 0.15-0.545v-0.632c-0.034 0.034-0.1 0.066-0.198 0.096-0.096 0.028-0.205 0.052-0.329 0.073-0.123 0.019-0.243 0.037-0.36 0.054-0.117 0.015-0.215 0.028-0.293 0.038-0.185 0.023-0.354 0.063-0.507 0.118-0.151 0.055-0.272 0.135-0.364 0.239-0.089 0.102-0.134 0.238-0.134 0.408 0 0.236 0.087 0.415 0.262 0.536 0.174 0.119 0.397 0.179 0.667 0.179zM15.599 26.845v2.909h-0.954v-4.9h0.915v0.797h0.061c0.113-0.259 0.289-0.468 0.53-0.625 0.242-0.157 0.548-0.236 0.915-0.236 0.334 0 0.626 0.070 0.877 0.211 0.251 0.138 0.445 0.344 0.584 0.619s0.207 0.613 0.207 1.018v3.116h-0.954v-3.002c0-0.355-0.093-0.633-0.277-0.832-0.185-0.202-0.439-0.303-0.762-0.303-0.221 0-0.418 0.048-0.59 0.144-0.17 0.096-0.305 0.236-0.405 0.421-0.098 0.183-0.147 0.404-0.147 0.663z"></path>
</symbol>
<symbol id="icon-Button-container-1" viewBox="0 0 33 32">
<path d="M9.26 0.862h4.512c0.038 0 0.074-0.015 0.101-0.041l0.434-0.423c0.126-0.123 0.293-0.191 0.472-0.191h6.842c0.319 0 0.614 0.154 0.791 0.413l0.82 1.2c0.116 0.17 0.127 0.388 0.028 0.569s-0.291 0.293-0.501 0.293h-3.527v0.348h1.806c0.479 0 0.91 0.277 1.097 0.707l1.058 2.418 0.926 0.362c0.495 0.193 0.814 0.654 0.814 1.173v2.239c0 0.334-0.279 0.606-0.621 0.606h-1.078c-0.125 0.741-0.787 1.309-1.582 1.309s-1.456-0.568-1.582-1.309h-5.892c-0.125 0.741-0.787 1.309-1.582 1.309s-1.457-0.568-1.582-1.309h-2.153c-0.304 0-0.552-0.242-0.552-0.538v-8.209c0-0.51 0.425-0.925 0.948-0.925zM21.654 11.333c0.595 0 1.080-0.472 1.080-1.053s-0.484-1.053-1.080-1.053c-0.595 0-1.080 0.472-1.080 1.053s0.484 1.053 1.080 1.053zM19.233 10.024h0.839c0.002-0.013 0.005-0.025 0.007-0.038 0.002-0.009 0.003-0.017 0.005-0.026 0.004-0.020 0.009-0.040 0.014-0.060 0.001-0.004 0.002-0.008 0.003-0.012 0.006-0.024 0.013-0.047 0.021-0.071 0.002-0.007 0.005-0.014 0.007-0.020 0.005-0.016 0.011-0.033 0.017-0.049 0.003-0.009 0.007-0.017 0.010-0.026 0.005-0.014 0.011-0.028 0.017-0.042 0.004-0.009 0.008-0.018 0.012-0.027 0.006-0.013 0.012-0.026 0.018-0.039 0.005-0.009 0.009-0.018 0.014-0.027 0.006-0.012 0.013-0.025 0.020-0.037 0.005-0.009 0.010-0.018 0.015-0.027 0.007-0.012 0.014-0.025 0.022-0.037 0.005-0.009 0.010-0.017 0.016-0.026 0.008-0.012 0.016-0.024 0.024-0.037 0.005-0.008 0.011-0.016 0.016-0.024 0.009-0.013 0.018-0.026 0.028-0.038 0.005-0.007 0.010-0.014 0.015-0.020 0.013-0.017 0.026-0.033 0.040-0.049 0.002-0.002 0.004-0.005 0.006-0.007 0.015-0.018 0.032-0.036 0.048-0.054 0.005-0.006 0.010-0.011 0.015-0.016 0.012-0.012 0.023-0.024 0.035-0.036 0.007-0.007 0.014-0.013 0.020-0.019 0.011-0.010 0.022-0.020 0.033-0.030 0.007-0.007 0.015-0.013 0.022-0.020 0.011-0.009 0.022-0.019 0.033-0.028l0.024-0.019c0.011-0.009 0.022-0.017 0.034-0.026 0.008-0.006 0.017-0.012 0.025-0.018 0.012-0.008 0.023-0.016 0.035-0.025 0.008-0.006 0.017-0.011 0.025-0.017 0.012-0.008 0.025-0.016 0.038-0.024 0.008-0.005 0.016-0.010 0.025-0.015 0.014-0.008 0.028-0.016 0.042-0.024 0.007-0.004 0.014-0.008 0.022-0.012 0.020-0.011 0.041-0.021 0.061-0.031 0.002-0.001 0.003-0.001 0.005-0.002 0.022-0.010 0.045-0.020 0.067-0.030 0.007-0.003 0.015-0.006 0.022-0.009 0.015-0.006 0.031-0.012 0.047-0.018 0.009-0.003 0.018-0.006 0.027-0.009 0.014-0.005 0.029-0.010 0.044-0.014 0.010-0.003 0.020-0.006 0.030-0.009 0.014-0.004 0.029-0.008 0.043-0.012 0.010-0.003 0.021-0.005 0.031-0.008 0.014-0.003 0.029-0.007 0.043-0.010 0.010-0.002 0.021-0.005 0.032-0.007 0.015-0.003 0.029-0.005 0.044-0.008 0.010-0.002 0.021-0.004 0.031-0.005 0.015-0.002 0.031-0.004 0.047-0.006 0.010-0.001 0.020-0.002 0.030-0.003 0.017-0.002 0.035-0.003 0.052-0.004 0.009-0.001 0.017-0.001 0.026-0.002 0.026-0.001 0.052-0.002 0.079-0.002s0.052 0.001 0.079 0.002c0.009 0 0.017 0.001 0.026 0.002 0.017 0.001 0.035 0.002 0.052 0.004 0.010 0.001 0.020 0.002 0.030 0.003 0.016 0.002 0.031 0.004 0.047 0.006 0.011 0.001 0.021 0.003 0.031 0.005 0.015 0.002 0.030 0.005 0.044 0.008 0.011 0.002 0.021 0.004 0.032 0.007 0.014 0.003 0.029 0.006 0.043 0.010 0.010 0.002 0.021 0.005 0.031 0.008 0.014 0.004 0.029 0.008 0.043 0.012 0.010 0.003 0.020 0.006 0.030 0.009 0.015 0.005 0.029 0.009 0.044 0.014 0.009 0.003 0.018 0.006 0.027 0.009 0.016 0.006 0.032 0.012 0.047 0.018 0.007 0.003 0.015 0.006 0.022 0.009 0.023 0.009 0.045 0.019 0.067 0.030 0.002 0.001 0.003 0.002 0.005 0.002 0.021 0.010 0.041 0.020 0.061 0.031 0.007 0.004 0.014 0.008 0.022 0.012 0.014 0.008 0.029 0.016 0.042 0.024 0.008 0.005 0.017 0.010 0.025 0.015 0.013 0.008 0.025 0.016 0.038 0.024 0.008 0.006 0.017 0.011 0.025 0.017 0.012 0.008 0.024 0.016 0.035 0.025 0.008 0.006 0.017 0.012 0.025 0.018 0.011 0.009 0.023 0.017 0.034 0.026l0.024 0.019c0.011 0.009 0.022 0.018 0.033 0.028 0.008 0.007 0.015 0.013 0.022 0.020 0.011 0.010 0.022 0.020 0.033 0.030 0.007 0.006 0.014 0.013 0.020 0.019 0.012 0.012 0.023 0.024 0.035 0.036 0.005 0.005 0.010 0.010 0.016 0.016 0.016 0.018 0.032 0.036 0.048 0.054 0.002 0.002 0.004 0.005 0.006 0.007 0.013 0.016 0.027 0.032 0.040 0.049 0.005 0.007 0.010 0.013 0.015 0.020 0.010 0.013 0.019 0.025 0.028 0.038 0.005 0.008 0.011 0.016 0.016 0.024 0.008 0.012 0.016 0.024 0.024 0.037 0.005 0.009 0.010 0.017 0.016 0.026 0.007 0.012 0.015 0.024 0.022 0.037 0.005 0.009 0.010 0.018 0.015 0.027 0.007 0.012 0.013 0.025 0.020 0.037 0.005 0.009 0.009 0.018 0.014 0.027 0.006 0.013 0.012 0.026 0.018 0.039 0.004 0.009 0.008 0.018 0.012 0.027 0.006 0.014 0.012 0.028 0.017 0.042 0.004 0.009 0.007 0.017 0.010 0.026 0.006 0.016 0.012 0.033 0.017 0.049 0.002 0.007 0.005 0.014 0.007 0.020 0.007 0.023 0.014 0.047 0.021 0.071 0.001 0.004 0.002 0.008 0.003 0.012 0.005 0.020 0.010 0.040 0.014 0.060 0.002 0.009 0.003 0.017 0.005 0.026 0.003 0.013 0.005 0.025 0.007 0.038h1.078c0.053 0 0.097-0.042 0.097-0.095v-1.071h-0.409v-0.511h0.409v-0.657c0-0.31-0.19-0.584-0.485-0.699l-0.981-0.383h-3.712v3.415zM19.233 6.098h3.366l-0.945-2.16c-0.105-0.241-0.347-0.397-0.615-0.397h-1.806v2.556zM12.599 11.333c0.595 0 1.080-0.472 1.080-1.053s-0.484-1.053-1.080-1.053c-0.019 0-0.037 0-0.056 0.001-0.496 0.025-0.905 0.378-1.002 0.84-0.004 0.017-0.007 0.035-0.010 0.052-0.005 0.035-0.009 0.070-0.011 0.106-0.001 0.018-0.002 0.036-0.002 0.054 0 0.581 0.484 1.053 1.080 1.053zM8.836 8.347h0.409v0.511h-0.409v1.138c0 0.015 0.013 0.027 0.028 0.027h2.153c0.002-0.013 0.005-0.025 0.007-0.038 0.002-0.009 0.003-0.018 0.005-0.026 0.004-0.020 0.009-0.039 0.014-0.058 0.001-0.005 0.002-0.009 0.003-0.014 0.006-0.024 0.013-0.047 0.021-0.070 0.002-0.007 0.005-0.014 0.007-0.021 0.005-0.016 0.011-0.032 0.017-0.048 0.003-0.009 0.007-0.018 0.010-0.026 0.005-0.014 0.011-0.028 0.017-0.042 0.004-0.009 0.008-0.019 0.012-0.028 0.006-0.013 0.012-0.026 0.018-0.039 0.004-0.009 0.009-0.019 0.014-0.028 0.006-0.012 0.013-0.025 0.020-0.037 0.005-0.009 0.010-0.018 0.015-0.027 0.007-0.012 0.014-0.024 0.022-0.036 0.005-0.009 0.010-0.017 0.016-0.026 0.008-0.012 0.016-0.024 0.024-0.036 0.005-0.008 0.011-0.016 0.016-0.024 0.009-0.013 0.018-0.025 0.028-0.038 0.005-0.007 0.010-0.014 0.015-0.021 0.013-0.016 0.025-0.032 0.039-0.048 0.002-0.003 0.004-0.006 0.007-0.008 0.016-0.018 0.032-0.036 0.048-0.054 0.005-0.006 0.011-0.011 0.016-0.016 0.011-0.012 0.023-0.024 0.035-0.036 0.007-0.007 0.014-0.013 0.021-0.019 0.011-0.010 0.021-0.020 0.033-0.030 0.007-0.007 0.015-0.013 0.023-0.020 0.011-0.009 0.022-0.018 0.033-0.027 0.008-0.007 0.016-0.013 0.024-0.019 0.011-0.009 0.022-0.017 0.034-0.026 0.008-0.006 0.017-0.012 0.025-0.018 0.012-0.008 0.023-0.016 0.035-0.024 0.009-0.006 0.017-0.011 0.025-0.017 0.012-0.008 0.025-0.016 0.038-0.024 0.008-0.005 0.017-0.010 0.025-0.015 0.014-0.008 0.028-0.016 0.042-0.024 0.007-0.004 0.014-0.008 0.022-0.012 0.020-0.011 0.040-0.021 0.061-0.030 0.002-0.001 0.003-0.002 0.005-0.003 0.022-0.010 0.045-0.020 0.068-0.030 0.007-0.003 0.015-0.006 0.022-0.009 0.016-0.006 0.031-0.012 0.047-0.018 0.009-0.003 0.018-0.006 0.027-0.009 0.014-0.005 0.029-0.010 0.043-0.014 0.010-0.003 0.020-0.006 0.030-0.009 0.014-0.004 0.028-0.008 0.043-0.012 0.010-0.003 0.021-0.005 0.031-0.008 0.014-0.003 0.028-0.007 0.043-0.010 0.010-0.002 0.021-0.005 0.032-0.007 0.015-0.003 0.029-0.005 0.044-0.008 0.010-0.002 0.021-0.004 0.031-0.005 0.015-0.002 0.031-0.004 0.046-0.006 0.010-0.001 0.020-0.002 0.030-0.003 0.017-0.002 0.035-0.003 0.052-0.004 0.009-0.001 0.017-0.001 0.026-0.002 0.026-0.001 0.052-0.002 0.079-0.002s0.052 0.001 0.079 0.002c0.009 0 0.017 0.001 0.026 0.002 0.017 0.001 0.035 0.002 0.052 0.004 0.010 0.001 0.020 0.002 0.030 0.003 0.016 0.002 0.031 0.004 0.047 0.006 0.011 0.001 0.021 0.003 0.031 0.005 0.015 0.002 0.030 0.005 0.044 0.008 0.011 0.002 0.021 0.004 0.032 0.007 0.014 0.003 0.029 0.006 0.043 0.010 0.010 0.002 0.021 0.005 0.031 0.008 0.014 0.004 0.028 0.008 0.043 0.012 0.010 0.003 0.020 0.006 0.030 0.009 0.015 0.005 0.029 0.009 0.043 0.014 0.009 0.003 0.018 0.006 0.027 0.009 0.016 0.006 0.031 0.012 0.047 0.018 0.007 0.003 0.015 0.006 0.022 0.009 0.023 0.009 0.045 0.019 0.068 0.030 0.002 0.001 0.004 0.002 0.005 0.003 0.021 0.010 0.041 0.020 0.061 0.030 0.008 0.004 0.015 0.008 0.022 0.012 0.014 0.008 0.028 0.016 0.042 0.024 0.008 0.005 0.017 0.010 0.025 0.015 0.013 0.008 0.025 0.015 0.038 0.024 0.008 0.006 0.017 0.011 0.025 0.017 0.012 0.008 0.023 0.016 0.035 0.024 0.008 0.006 0.017 0.012 0.025 0.018 0.011 0.009 0.023 0.017 0.034 0.026 0.008 0.006 0.016 0.013 0.024 0.019 0.011 0.009 0.022 0.018 0.033 0.028 0.008 0.007 0.015 0.013 0.023 0.020 0.011 0.010 0.022 0.020 0.033 0.030 0.007 0.006 0.014 0.013 0.020 0.019 0.012 0.012 0.023 0.024 0.035 0.036 0.005 0.005 0.010 0.011 0.015 0.016 0.016 0.018 0.032 0.036 0.048 0.054 0.002 0.003 0.004 0.005 0.006 0.008 0.013 0.016 0.026 0.032 0.039 0.049 0.005 0.007 0.010 0.013 0.015 0.020 0.009 0.013 0.019 0.025 0.028 0.038 0.005 0.008 0.011 0.016 0.016 0.024 0.008 0.012 0.016 0.024 0.024 0.036 0.005 0.009 0.011 0.017 0.016 0.026 0.007 0.012 0.015 0.024 0.022 0.037 0.005 0.009 0.010 0.018 0.015 0.027 0.007 0.012 0.013 0.025 0.020 0.037 0.005 0.009 0.009 0.018 0.014 0.027 0.006 0.013 0.012 0.026 0.018 0.039 0.004 0.009 0.008 0.018 0.012 0.027 0.006 0.014 0.012 0.028 0.017 0.042 0.003 0.009 0.007 0.017 0.010 0.026 0.006 0.016 0.012 0.033 0.017 0.049 0.002 0.007 0.005 0.013 0.007 0.020 0.007 0.023 0.014 0.047 0.021 0.071 0.001 0.004 0.002 0.008 0.002 0.011 0.005 0.020 0.010 0.040 0.014 0.061 0.002 0.008 0.003 0.017 0.005 0.025 0.003 0.013 0.005 0.026 0.008 0.039h4.528v-7.597c0-0.141 0.117-0.256 0.262-0.256h3.789c0.006 0 0.026 0 0.039-0.023s0.001-0.039-0.002-0.044l-0.82-1.2c-0.079-0.116-0.212-0.185-0.355-0.185h-6.842c-0.038 0-0.074 0.015-0.101 0.041l-0.434 0.423c-0.126 0.123-0.293 0.191-0.472 0.191h-4.512c-0.234 0-0.424 0.186-0.424 0.414v6.56z"></path>
<path d="M15.627 2.825h1.658c0.335 0 0.607 0.266 0.607 0.592v5.471c0 0.141-0.117 0.256-0.262 0.256h-2.348c-0.145 0-0.262-0.115-0.262-0.256v-5.471c-0-0.327 0.272-0.592 0.607-0.592zM15.543 8.633h1.824v-3.006h-1.824v3.006zM15.543 5.116h1.824v-1.698c0-0.045-0.037-0.081-0.083-0.081h-1.658c-0.046 0-0.083 0.036-0.083 0.081l0 1.698z"></path>
<path d="M9.804 21.818v-4.836h2.999v0.628h-2.269v1.473h2.054v0.626h-2.054v2.109h-0.73zM15.714 20.314v-2.123h0.708v3.627h-0.694v-0.628h-0.038c-0.083 0.194-0.217 0.355-0.401 0.484-0.183 0.128-0.41 0.191-0.682 0.191-0.233 0-0.439-0.051-0.619-0.153-0.178-0.104-0.318-0.257-0.42-0.46-0.101-0.203-0.151-0.454-0.151-0.753v-2.307h0.706v2.222c0 0.247 0.069 0.444 0.205 0.59s0.315 0.22 0.534 0.22c0.132 0 0.264-0.033 0.394-0.099 0.132-0.066 0.242-0.166 0.328-0.3 0.088-0.134 0.131-0.304 0.13-0.51zM18.077 16.982v4.836h-0.706v-4.836h0.706zM19.733 16.982v4.836h-0.706v-4.836h0.706zM21.129 23.178c-0.105 0-0.201-0.009-0.288-0.026-0.087-0.016-0.151-0.033-0.194-0.052l0.17-0.579c0.129 0.035 0.244 0.050 0.345 0.045s0.19-0.042 0.267-0.113c0.079-0.071 0.148-0.187 0.208-0.347l0.087-0.241-1.327-3.674h0.756l0.919 2.815h0.038l0.919-2.815h0.758l-1.495 4.111c-0.069 0.189-0.157 0.349-0.264 0.479-0.107 0.132-0.235 0.231-0.383 0.298s-0.32 0.099-0.515 0.099zM1.378 25.294v4.836h-0.73v-4.836h0.73zM3.090 27.976v2.153h-0.706v-3.627h0.678v0.59h0.045c0.083-0.192 0.214-0.346 0.392-0.463 0.179-0.116 0.405-0.175 0.678-0.175 0.247 0 0.464 0.052 0.649 0.156 0.186 0.102 0.33 0.255 0.432 0.458s0.153 0.454 0.153 0.753v2.307h-0.706v-2.222c0-0.263-0.068-0.468-0.205-0.616-0.137-0.15-0.325-0.224-0.564-0.224-0.164 0-0.309 0.035-0.437 0.106-0.126 0.071-0.226 0.175-0.3 0.312-0.072 0.135-0.109 0.299-0.109 0.491zM8.051 26.503v0.567h-1.981v-0.567h1.981zM6.601 25.634h0.706v3.431c0 0.137 0.020 0.24 0.061 0.309 0.041 0.068 0.094 0.114 0.158 0.139 0.066 0.024 0.138 0.035 0.215 0.035 0.057 0 0.106-0.004 0.149-0.012s0.076-0.014 0.099-0.019l0.128 0.583c-0.041 0.016-0.099 0.032-0.175 0.047-0.076 0.017-0.17 0.027-0.283 0.028-0.186 0.003-0.359-0.030-0.519-0.099s-0.29-0.176-0.39-0.321c-0.099-0.145-0.149-0.327-0.149-0.545v-3.577zM10.356 30.203c-0.357 0-0.665-0.076-0.923-0.229-0.257-0.154-0.455-0.371-0.595-0.649-0.139-0.28-0.208-0.608-0.208-0.985 0-0.372 0.069-0.699 0.208-0.982 0.14-0.283 0.335-0.505 0.586-0.663 0.252-0.159 0.546-0.238 0.883-0.238 0.205 0 0.403 0.034 0.595 0.102s0.364 0.174 0.517 0.319c0.153 0.145 0.273 0.333 0.361 0.564 0.088 0.23 0.132 0.509 0.132 0.838v0.25h-2.883v-0.529h2.191c0-0.186-0.038-0.35-0.113-0.494-0.076-0.145-0.182-0.259-0.319-0.342-0.135-0.083-0.294-0.125-0.477-0.125-0.198 0-0.372 0.049-0.519 0.146-0.146 0.096-0.26 0.222-0.34 0.378-0.079 0.154-0.118 0.322-0.118 0.503v0.413c0 0.242 0.043 0.449 0.127 0.619 0.087 0.17 0.207 0.3 0.361 0.39 0.154 0.088 0.335 0.132 0.541 0.132 0.134 0 0.256-0.019 0.366-0.057 0.11-0.039 0.205-0.098 0.286-0.175s0.142-0.172 0.184-0.286l0.668 0.12c-0.054 0.197-0.15 0.369-0.288 0.517-0.137 0.146-0.309 0.261-0.517 0.342-0.206 0.080-0.442 0.12-0.706 0.12zM14.216 31.566c-0.288 0-0.536-0.038-0.744-0.113-0.206-0.076-0.375-0.175-0.505-0.3s-0.228-0.261-0.293-0.408l0.607-0.25c0.043 0.069 0.099 0.142 0.17 0.22 0.072 0.079 0.17 0.146 0.293 0.201 0.124 0.055 0.284 0.083 0.479 0.083 0.268 0 0.489-0.065 0.664-0.196 0.175-0.129 0.262-0.335 0.262-0.619v-0.713h-0.045c-0.043 0.077-0.104 0.163-0.184 0.257-0.079 0.094-0.187 0.176-0.326 0.246s-0.319 0.104-0.541 0.104c-0.287 0-0.545-0.067-0.774-0.201-0.228-0.135-0.409-0.335-0.543-0.597-0.132-0.264-0.198-0.59-0.198-0.975s0.065-0.716 0.196-0.992c0.132-0.276 0.313-0.486 0.543-0.633 0.23-0.148 0.49-0.222 0.782-0.222 0.225 0 0.407 0.038 0.545 0.113 0.139 0.074 0.246 0.161 0.323 0.26 0.079 0.099 0.139 0.187 0.182 0.262h0.052v-0.588h0.692v3.707c0 0.312-0.072 0.567-0.217 0.767s-0.341 0.348-0.588 0.444c-0.246 0.096-0.523 0.144-0.831 0.144zM14.209 29.49c0.203 0 0.375-0.047 0.515-0.142 0.142-0.096 0.249-0.233 0.321-0.411 0.074-0.179 0.111-0.394 0.111-0.645 0-0.244-0.036-0.459-0.109-0.645s-0.179-0.331-0.319-0.434c-0.14-0.105-0.313-0.158-0.519-0.158-0.213 0-0.39 0.055-0.531 0.165-0.142 0.109-0.249 0.257-0.321 0.444-0.071 0.187-0.106 0.397-0.106 0.628 0 0.238 0.036 0.446 0.109 0.626s0.179 0.32 0.321 0.42c0.143 0.101 0.32 0.151 0.529 0.151zM16.799 30.13v-3.627h0.682v0.576h0.038c0.066-0.195 0.183-0.349 0.349-0.46 0.168-0.113 0.359-0.17 0.571-0.17 0.044 0 0.096 0.002 0.156 0.005 0.061 0.003 0.109 0.007 0.144 0.012v0.675c-0.028-0.008-0.079-0.017-0.151-0.026-0.072-0.011-0.145-0.017-0.217-0.017-0.167 0-0.316 0.035-0.446 0.106-0.129 0.069-0.231 0.166-0.307 0.29-0.076 0.123-0.113 0.263-0.113 0.42v2.215h-0.706zM20.374 30.21c-0.23 0-0.438-0.043-0.623-0.128-0.186-0.087-0.333-0.212-0.442-0.375-0.107-0.164-0.161-0.364-0.161-0.602 0-0.205 0.039-0.373 0.118-0.505s0.185-0.237 0.319-0.314c0.134-0.077 0.283-0.135 0.449-0.175s0.334-0.069 0.505-0.090c0.217-0.025 0.394-0.046 0.529-0.061 0.135-0.017 0.234-0.045 0.295-0.083s0.092-0.099 0.092-0.184v-0.017c0-0.206-0.058-0.366-0.175-0.479-0.115-0.113-0.287-0.17-0.515-0.17-0.238 0-0.425 0.053-0.562 0.158-0.135 0.104-0.229 0.22-0.281 0.347l-0.663-0.151c0.079-0.22 0.194-0.398 0.345-0.534 0.153-0.137 0.328-0.236 0.527-0.298 0.198-0.063 0.407-0.094 0.626-0.094 0.145 0 0.298 0.017 0.46 0.052 0.164 0.033 0.316 0.094 0.458 0.184 0.143 0.090 0.261 0.218 0.352 0.385 0.091 0.165 0.137 0.38 0.137 0.645v2.409h-0.689v-0.496h-0.028c-0.046 0.091-0.114 0.181-0.205 0.269s-0.209 0.161-0.352 0.22c-0.143 0.058-0.315 0.087-0.515 0.087zM20.528 29.643c0.195 0 0.362-0.039 0.501-0.116 0.14-0.077 0.246-0.178 0.319-0.302 0.074-0.126 0.111-0.261 0.111-0.404v-0.468c-0.025 0.025-0.074 0.049-0.146 0.071-0.071 0.020-0.152 0.039-0.243 0.054-0.091 0.014-0.18 0.028-0.267 0.040-0.087 0.011-0.159 0.020-0.217 0.028-0.137 0.017-0.262 0.046-0.375 0.087-0.112 0.041-0.201 0.1-0.269 0.177-0.066 0.076-0.099 0.176-0.099 0.302 0 0.175 0.065 0.307 0.194 0.397 0.129 0.088 0.294 0.132 0.494 0.132zM24.797 26.503v0.567h-1.981v-0.567h1.981zM23.348 25.634h0.706v3.431c0 0.137 0.020 0.24 0.061 0.309 0.041 0.068 0.094 0.114 0.158 0.139 0.066 0.024 0.138 0.035 0.215 0.035 0.057 0 0.106-0.004 0.149-0.012s0.076-0.014 0.099-0.019l0.128 0.583c-0.041 0.016-0.099 0.032-0.175 0.047-0.076 0.017-0.17 0.027-0.283 0.028-0.186 0.003-0.359-0.030-0.519-0.099s-0.29-0.176-0.39-0.321c-0.099-0.145-0.149-0.327-0.149-0.545v-3.577zM27.103 30.203c-0.357 0-0.665-0.076-0.923-0.229-0.257-0.154-0.455-0.371-0.595-0.649-0.139-0.28-0.208-0.608-0.208-0.985 0-0.372 0.069-0.699 0.208-0.982 0.14-0.283 0.335-0.505 0.586-0.663 0.252-0.159 0.546-0.238 0.883-0.238 0.205 0 0.403 0.034 0.595 0.102s0.364 0.174 0.517 0.319c0.153 0.145 0.273 0.333 0.361 0.564 0.088 0.23 0.132 0.509 0.132 0.838v0.25h-2.883v-0.529h2.191c0-0.186-0.038-0.35-0.113-0.494-0.076-0.145-0.182-0.259-0.319-0.342-0.135-0.083-0.294-0.125-0.477-0.125-0.198 0-0.372 0.049-0.519 0.146-0.146 0.096-0.26 0.222-0.34 0.378-0.079 0.154-0.118 0.322-0.118 0.503v0.413c0 0.242 0.043 0.449 0.128 0.619 0.087 0.17 0.207 0.3 0.361 0.39 0.154 0.088 0.334 0.132 0.541 0.132 0.134 0 0.256-0.019 0.366-0.057 0.11-0.039 0.205-0.098 0.286-0.175s0.142-0.172 0.184-0.286l0.668 0.12c-0.054 0.197-0.15 0.369-0.288 0.517-0.137 0.146-0.309 0.261-0.517 0.342-0.206 0.080-0.442 0.12-0.706 0.12zM30.8 30.201c-0.293 0-0.554-0.075-0.784-0.224-0.228-0.151-0.408-0.366-0.538-0.645-0.129-0.28-0.194-0.616-0.194-1.008s0.065-0.727 0.196-1.006c0.132-0.279 0.313-0.492 0.543-0.64s0.49-0.222 0.782-0.222c0.225 0 0.406 0.038 0.543 0.113 0.139 0.074 0.246 0.161 0.321 0.26 0.077 0.099 0.137 0.187 0.179 0.262h0.043v-1.797h0.706v4.836h-0.689v-0.564h-0.059c-0.042 0.077-0.104 0.165-0.184 0.264-0.079 0.099-0.187 0.186-0.326 0.26s-0.318 0.111-0.538 0.111zM30.956 29.599c0.203 0 0.375-0.054 0.515-0.161 0.142-0.109 0.249-0.259 0.321-0.451 0.074-0.192 0.111-0.416 0.111-0.671 0-0.252-0.036-0.472-0.109-0.661s-0.179-0.336-0.319-0.442c-0.14-0.105-0.313-0.158-0.519-0.158-0.212 0-0.39 0.055-0.531 0.165s-0.249 0.261-0.321 0.451c-0.071 0.191-0.106 0.405-0.106 0.645 0 0.242 0.036 0.46 0.109 0.654s0.179 0.347 0.321 0.46c0.143 0.112 0.32 0.168 0.529 0.168z"></path>
</symbol>
<symbol id="icon-Button-container-2" viewBox="0 0 29 32">
<path d="M4.65 1.165h6.096c0.052 0 0.1-0.020 0.136-0.055l0.586-0.571c0.17-0.166 0.396-0.257 0.637-0.257h9.243c0.43 0 0.83 0.209 1.069 0.558l1.108 1.621c0.157 0.23 0.172 0.524 0.038 0.768s-0.393 0.395-0.677 0.395h-4.764v0.47h2.44c0.647 0 1.229 0.375 1.482 0.955l1.429 3.267 1.251 0.488c0.668 0.261 1.1 0.883 1.1 1.585v3.025c0 0.451-0.376 0.818-0.839 0.818h-1.456c-0.169 1.001-1.063 1.768-2.137 1.768s-1.968-0.767-2.137-1.768h-7.96c-0.169 1.001-1.063 1.768-2.137 1.768s-1.968-0.767-2.137-1.768h-2.909c-0.411 0-0.746-0.326-0.746-0.727v-11.090c0-0.689 0.575-1.25 1.281-1.25zM21.393 15.309c0.804 0 1.458-0.638 1.458-1.423s-0.654-1.423-1.458-1.423c-0.804 0-1.458 0.638-1.458 1.423s0.654 1.423 1.458 1.423zM18.122 13.541h1.133c0.003-0.017 0.006-0.034 0.010-0.051 0.002-0.012 0.004-0.023 0.007-0.035 0.006-0.027 0.012-0.054 0.019-0.081 0.001-0.006 0.003-0.011 0.004-0.017 0.009-0.032 0.018-0.064 0.028-0.096 0.003-0.009 0.006-0.018 0.009-0.028 0.007-0.022 0.015-0.044 0.023-0.066 0.005-0.012 0.009-0.023 0.014-0.035 0.007-0.019 0.015-0.038 0.023-0.057 0.005-0.012 0.011-0.025 0.016-0.037 0.008-0.018 0.016-0.035 0.024-0.053 0.006-0.012 0.012-0.025 0.019-0.037 0.008-0.017 0.018-0.034 0.027-0.051 0.006-0.012 0.013-0.024 0.020-0.037 0.009-0.017 0.019-0.033 0.029-0.049 0.007-0.012 0.014-0.023 0.021-0.035 0.011-0.017 0.021-0.033 0.033-0.049 0.007-0.011 0.014-0.022 0.022-0.032 0.012-0.017 0.025-0.035 0.038-0.052 0.006-0.009 0.013-0.018 0.020-0.027 0.018-0.023 0.035-0.044 0.054-0.066 0.003-0.003 0.005-0.007 0.008-0.010 0.021-0.025 0.043-0.049 0.065-0.073 0.007-0.007 0.014-0.014 0.021-0.022 0.016-0.016 0.031-0.033 0.047-0.049 0.009-0.009 0.018-0.017 0.027-0.026 0.014-0.014 0.029-0.028 0.044-0.041 0.010-0.009 0.020-0.018 0.030-0.027 0.015-0.013 0.029-0.025 0.044-0.038l0.032-0.026c0.015-0.012 0.030-0.024 0.046-0.035 0.011-0.008 0.022-0.017 0.034-0.025 0.016-0.011 0.031-0.022 0.048-0.033 0.011-0.007 0.023-0.015 0.034-0.023 0.017-0.011 0.034-0.022 0.051-0.032 0.011-0.007 0.022-0.014 0.033-0.020 0.019-0.011 0.038-0.022 0.057-0.032 0.010-0.005 0.020-0.011 0.029-0.016 0.027-0.014 0.055-0.028 0.083-0.041 0.002-0.001 0.004-0.002 0.006-0.003 0.030-0.014 0.061-0.028 0.091-0.040 0.010-0.004 0.020-0.008 0.030-0.012 0.021-0.008 0.042-0.017 0.064-0.025 0.012-0.004 0.025-0.008 0.037-0.013 0.020-0.007 0.039-0.013 0.059-0.019 0.013-0.004 0.027-0.008 0.040-0.012 0.019-0.006 0.038-0.011 0.058-0.016 0.014-0.004 0.028-0.007 0.042-0.011 0.019-0.005 0.038-0.009 0.058-0.013 0.014-0.003 0.028-0.006 0.043-0.009 0.020-0.004 0.040-0.007 0.060-0.010 0.014-0.003 0.028-0.005 0.042-0.007 0.021-0.003 0.042-0.006 0.063-0.008 0.013-0.001 0.027-0.003 0.040-0.004 0.023-0.002 0.047-0.004 0.070-0.005 0.012-0.001 0.023-0.002 0.035-0.002 0.035-0.002 0.070-0.003 0.106-0.003s0.071 0.001 0.106 0.003c0.012 0 0.023 0.001 0.035 0.002 0.024 0.001 0.047 0.003 0.070 0.005 0.014 0.001 0.027 0.003 0.040 0.004 0.021 0.002 0.042 0.005 0.063 0.008 0.014 0.002 0.028 0.004 0.043 0.007 0.020 0.003 0.040 0.007 0.060 0.010 0.014 0.003 0.029 0.006 0.043 0.009 0.020 0.004 0.039 0.008 0.058 0.013 0.014 0.003 0.028 0.007 0.042 0.011 0.019 0.005 0.038 0.011 0.058 0.016 0.014 0.004 0.027 0.008 0.040 0.012 0.020 0.006 0.039 0.013 0.059 0.019 0.012 0.004 0.025 0.008 0.037 0.013 0.021 0.008 0.043 0.016 0.064 0.025 0.010 0.004 0.020 0.008 0.030 0.012 0.031 0.013 0.061 0.026 0.091 0.040 0.002 0.001 0.004 0.002 0.006 0.003 0.028 0.013 0.055 0.027 0.083 0.041 0.010 0.005 0.019 0.011 0.029 0.016 0.019 0.011 0.038 0.021 0.057 0.032 0.011 0.007 0.022 0.014 0.033 0.020 0.017 0.011 0.034 0.021 0.051 0.032 0.011 0.007 0.023 0.015 0.034 0.023 0.016 0.011 0.032 0.022 0.048 0.033 0.011 0.008 0.023 0.016 0.034 0.025 0.015 0.012 0.031 0.023 0.046 0.035l0.032 0.026c0.015 0.012 0.030 0.025 0.044 0.038 0.010 0.009 0.020 0.018 0.030 0.027 0.015 0.014 0.030 0.027 0.044 0.041 0.009 0.009 0.018 0.017 0.027 0.026 0.016 0.016 0.032 0.032 0.047 0.049 0.007 0.007 0.014 0.014 0.021 0.022 0.022 0.024 0.044 0.048 0.065 0.073 0.003 0.003 0.005 0.007 0.008 0.010 0.018 0.022 0.036 0.044 0.053 0.066 0.007 0.009 0.013 0.018 0.020 0.027 0.013 0.017 0.026 0.034 0.038 0.052 0.007 0.011 0.014 0.021 0.022 0.032 0.011 0.017 0.022 0.033 0.033 0.049 0.007 0.012 0.014 0.023 0.021 0.035 0.010 0.016 0.020 0.033 0.029 0.049 0.007 0.012 0.014 0.024 0.020 0.037 0.009 0.017 0.018 0.034 0.027 0.051 0.006 0.012 0.012 0.025 0.019 0.037 0.008 0.018 0.016 0.035 0.024 0.053 0.006 0.012 0.011 0.024 0.016 0.037 0.008 0.019 0.016 0.038 0.023 0.057 0.005 0.012 0.009 0.023 0.014 0.035 0.008 0.022 0.016 0.044 0.023 0.066 0.003 0.009 0.006 0.018 0.009 0.028 0.010 0.031 0.019 0.063 0.028 0.096 0.002 0.006 0.003 0.011 0.004 0.017 0.007 0.027 0.013 0.054 0.019 0.081 0.003 0.012 0.005 0.023 0.007 0.035 0.003 0.017 0.007 0.034 0.010 0.051h1.456c0.072 0 0.131-0.057 0.131-0.128v-1.447h-0.552v-0.691h0.552v-0.887c0-0.418-0.257-0.789-0.655-0.944l-1.325-0.517h-5.015v4.614zM18.122 8.237h4.547l-1.276-2.918c-0.142-0.325-0.469-0.536-0.831-0.536h-2.44v3.453zM9.159 15.309c0.804 0 1.458-0.638 1.458-1.423s-0.654-1.423-1.458-1.423c-0.025 0-0.050 0.001-0.075 0.002-0.67 0.033-1.222 0.51-1.354 1.134-0.005 0.023-0.009 0.047-0.013 0.070-0.007 0.047-0.012 0.095-0.015 0.143-0.001 0.024-0.002 0.049-0.002 0.073 0 0.785 0.654 1.423 1.458 1.423zM4.076 11.276h0.552v0.691h-0.552v1.538c0 0.020 0.017 0.037 0.038 0.037h2.908c0.003-0.017 0.006-0.034 0.010-0.051 0.002-0.012 0.004-0.024 0.007-0.036 0.006-0.027 0.012-0.053 0.019-0.079 0.002-0.006 0.003-0.012 0.005-0.019 0.008-0.032 0.018-0.063 0.028-0.095 0.003-0.010 0.006-0.019 0.010-0.029 0.007-0.022 0.015-0.044 0.023-0.065 0.005-0.012 0.009-0.024 0.014-0.036 0.007-0.019 0.015-0.038 0.023-0.056 0.005-0.013 0.011-0.025 0.017-0.038 0.008-0.017 0.016-0.035 0.024-0.052 0.006-0.013 0.012-0.025 0.019-0.038 0.008-0.017 0.017-0.033 0.026-0.050 0.007-0.012 0.014-0.024 0.020-0.037 0.010-0.017 0.019-0.033 0.029-0.049 0.007-0.012 0.014-0.023 0.021-0.035 0.011-0.017 0.021-0.033 0.032-0.049 0.007-0.011 0.014-0.022 0.022-0.033 0.012-0.017 0.025-0.034 0.037-0.051 0.007-0.009 0.014-0.019 0.021-0.028 0.017-0.022 0.034-0.043 0.052-0.065 0.003-0.004 0.006-0.008 0.009-0.011 0.021-0.025 0.043-0.049 0.065-0.073 0.007-0.007 0.014-0.015 0.021-0.022 0.016-0.016 0.031-0.032 0.047-0.048 0.009-0.009 0.018-0.017 0.028-0.026 0.014-0.014 0.029-0.027 0.044-0.041 0.010-0.009 0.020-0.018 0.031-0.027 0.014-0.012 0.029-0.025 0.044-0.037 0.011-0.009 0.021-0.018 0.033-0.026 0.015-0.012 0.030-0.023 0.045-0.035 0.011-0.008 0.022-0.017 0.034-0.025 0.016-0.011 0.031-0.022 0.047-0.033 0.012-0.008 0.023-0.015 0.034-0.023 0.017-0.011 0.034-0.022 0.051-0.032 0.011-0.007 0.022-0.014 0.034-0.020 0.019-0.011 0.038-0.022 0.057-0.032 0.010-0.005 0.020-0.011 0.030-0.016 0.027-0.014 0.054-0.028 0.082-0.041 0.002-0.001 0.005-0.002 0.007-0.004 0.030-0.014 0.061-0.028 0.091-0.040 0.010-0.004 0.020-0.008 0.030-0.012 0.021-0.008 0.042-0.017 0.064-0.025 0.012-0.004 0.025-0.008 0.037-0.013 0.019-0.007 0.039-0.013 0.059-0.019 0.013-0.004 0.027-0.008 0.040-0.012 0.019-0.006 0.039-0.011 0.058-0.016 0.014-0.004 0.028-0.007 0.042-0.011 0.019-0.005 0.039-0.009 0.058-0.013 0.014-0.003 0.028-0.006 0.043-0.009 0.020-0.004 0.040-0.007 0.060-0.010 0.014-0.003 0.028-0.005 0.043-0.007 0.021-0.003 0.042-0.006 0.063-0.008 0.013-0.001 0.027-0.003 0.041-0.004 0.023-0.002 0.047-0.004 0.070-0.005 0.012-0.001 0.023-0.002 0.035-0.002 0.035-0.002 0.070-0.003 0.106-0.003s0.071 0.001 0.106 0.003c0.012 0 0.023 0.001 0.035 0.002 0.023 0.001 0.047 0.003 0.070 0.005 0.014 0.001 0.027 0.003 0.041 0.004 0.021 0.002 0.042 0.005 0.063 0.008 0.014 0.002 0.028 0.004 0.042 0.007 0.020 0.003 0.040 0.007 0.060 0.010 0.014 0.003 0.029 0.006 0.043 0.009 0.020 0.004 0.039 0.008 0.058 0.013 0.014 0.003 0.028 0.007 0.042 0.011 0.019 0.005 0.039 0.011 0.058 0.016 0.013 0.004 0.027 0.008 0.040 0.012 0.020 0.006 0.039 0.013 0.059 0.019 0.012 0.004 0.025 0.008 0.037 0.013 0.021 0.008 0.043 0.016 0.064 0.025 0.010 0.004 0.020 0.008 0.030 0.012 0.031 0.013 0.061 0.026 0.091 0.040 0.003 0.001 0.005 0.002 0.007 0.004 0.028 0.013 0.055 0.027 0.082 0.041 0.010 0.005 0.020 0.011 0.030 0.016 0.019 0.011 0.038 0.021 0.057 0.032 0.011 0.007 0.022 0.014 0.034 0.020 0.017 0.010 0.034 0.021 0.051 0.032 0.011 0.007 0.023 0.015 0.034 0.023 0.016 0.011 0.032 0.022 0.047 0.033 0.011 0.008 0.023 0.016 0.034 0.025 0.015 0.012 0.031 0.023 0.045 0.035 0.011 0.009 0.022 0.017 0.033 0.026 0.015 0.012 0.030 0.025 0.044 0.037 0.010 0.009 0.021 0.018 0.031 0.027 0.015 0.014 0.029 0.027 0.044 0.041 0.009 0.009 0.018 0.017 0.027 0.026 0.016 0.016 0.032 0.032 0.047 0.048 0.007 0.007 0.014 0.014 0.021 0.022 0.022 0.024 0.044 0.048 0.065 0.073 0.003 0.004 0.006 0.007 0.008 0.011 0.018 0.022 0.036 0.043 0.053 0.066 0.007 0.009 0.014 0.018 0.020 0.027 0.013 0.017 0.025 0.034 0.038 0.052 0.007 0.011 0.014 0.022 0.022 0.032 0.011 0.016 0.022 0.033 0.032 0.049 0.007 0.012 0.014 0.023 0.021 0.035 0.010 0.016 0.020 0.033 0.029 0.049 0.007 0.012 0.014 0.024 0.020 0.037 0.009 0.017 0.018 0.034 0.027 0.051 0.006 0.012 0.012 0.025 0.018 0.037 0.008 0.018 0.016 0.035 0.024 0.053 0.006 0.012 0.011 0.024 0.016 0.037 0.008 0.019 0.016 0.038 0.023 0.057 0.005 0.012 0.009 0.023 0.014 0.035 0.008 0.022 0.016 0.044 0.023 0.067 0.003 0.009 0.007 0.018 0.009 0.027 0.010 0.031 0.019 0.064 0.028 0.096 0.001 0.005 0.002 0.010 0.003 0.015 0.007 0.027 0.014 0.055 0.020 0.082 0.003 0.011 0.005 0.022 0.007 0.034 0.003 0.017 0.007 0.035 0.010 0.052h6.117v-10.263c0-0.191 0.159-0.345 0.354-0.345h5.118c0.009 0 0.036 0 0.052-0.031s0.002-0.052-0.003-0.059l-1.108-1.621c-0.107-0.157-0.287-0.251-0.48-0.251h-9.243c-0.052 0-0.1 0.020-0.137 0.055l-0.586 0.571c-0.17 0.166-0.396 0.257-0.637 0.257h-6.096c-0.316 0-0.573 0.251-0.573 0.559v8.861z"></path>
<path d="M13.25 3.816h2.239c0.452 0 0.82 0.359 0.82 0.8v7.391c0 0.191-0.159 0.345-0.354 0.345h-3.172c-0.195 0-0.354-0.155-0.354-0.345v-7.391c-0-0.441 0.368-0.8 0.82-0.8zM13.137 11.662h2.464v-4.061h-2.464v4.061zM13.137 6.911h2.464v-2.294c0-0.061-0.050-0.11-0.112-0.11h-2.239c-0.062 0-0.112 0.049-0.112 0.11v2.294h0zM6.088 3.816h4.33c0.5 0 0.908 0.397 0.908 0.885v2.014c0 0.488-0.407 0.885-0.908 0.885h-4.33c-0.5 0-0.908-0.397-0.908-0.885v-2.014c0-0.488 0.407-0.885 0.908-0.885zM5.888 6.716c0 0.107 0.090 0.195 0.2 0.195h4.33c0.11 0 0.2-0.087 0.2-0.195v-2.014c0-0.107-0.089-0.195-0.2-0.195h-4.33c-0.11 0-0.2 0.087-0.2 0.195v2.014h0z"></path>
<path d="M1.335 29.474h-1.046l2.351-6.533h1.139l2.351 6.533h-1.046l-1.847-5.346h-0.051l-1.85 5.346zM1.511 26.915h3.394v0.829h-3.394v-0.829zM7.95 22.941v6.533h-0.954v-6.533h0.954zM11.297 29.573c-0.474 0-0.883-0.107-1.225-0.322-0.34-0.217-0.602-0.516-0.785-0.896s-0.274-0.817-0.274-1.308c0-0.498 0.094-0.937 0.281-1.317 0.187-0.383 0.451-0.682 0.791-0.896s0.741-0.322 1.203-0.322c0.372 0 0.704 0.069 0.995 0.207 0.291 0.136 0.526 0.327 0.705 0.574 0.181 0.247 0.288 0.535 0.322 0.864h-0.928c-0.051-0.23-0.168-0.427-0.351-0.593-0.181-0.166-0.423-0.249-0.727-0.249-0.266 0-0.499 0.070-0.699 0.211-0.198 0.138-0.352 0.336-0.462 0.593-0.111 0.255-0.166 0.557-0.166 0.906 0 0.357 0.054 0.666 0.163 0.925s0.262 0.46 0.459 0.603c0.2 0.142 0.435 0.214 0.705 0.214 0.181 0 0.345-0.033 0.491-0.099 0.149-0.068 0.273-0.165 0.373-0.29 0.102-0.125 0.173-0.276 0.214-0.453h0.928c-0.034 0.317-0.137 0.6-0.309 0.849s-0.403 0.444-0.692 0.587c-0.287 0.142-0.624 0.214-1.011 0.214zM16.394 29.573c-0.459 0-0.86-0.105-1.203-0.316s-0.608-0.505-0.797-0.884c-0.189-0.379-0.284-0.821-0.284-1.327 0-0.508 0.095-0.953 0.284-1.333s0.455-0.676 0.797-0.887c0.342-0.211 0.743-0.316 1.203-0.316s0.86 0.105 1.203 0.316c0.342 0.211 0.608 0.506 0.797 0.887s0.284 0.825 0.284 1.333c0 0.506-0.095 0.948-0.284 1.327s-0.455 0.673-0.797 0.884c-0.342 0.211-0.743 0.316-1.203 0.316zM16.397 28.772c0.298 0 0.544-0.079 0.74-0.236s0.34-0.367 0.434-0.628c0.096-0.262 0.144-0.55 0.144-0.864 0-0.313-0.048-0.6-0.144-0.861-0.094-0.264-0.238-0.475-0.434-0.635s-0.442-0.239-0.74-0.239c-0.3 0-0.549 0.080-0.746 0.239-0.196 0.16-0.341 0.371-0.437 0.635-0.094 0.262-0.14 0.549-0.14 0.861 0 0.315 0.047 0.603 0.14 0.864 0.096 0.262 0.241 0.471 0.437 0.628 0.198 0.157 0.447 0.236 0.746 0.236zM23.767 24.574l-1.777 4.9h-1.021l-1.78-4.9h1.024l1.241 3.77h0.051l1.238-3.77h1.024zM26.608 29.573c-0.483 0-0.898-0.103-1.247-0.309-0.347-0.208-0.615-0.501-0.804-0.877-0.187-0.378-0.281-0.822-0.281-1.33 0-0.502 0.094-0.944 0.281-1.327 0.189-0.383 0.453-0.682 0.791-0.896 0.34-0.215 0.738-0.322 1.193-0.322 0.276 0 0.544 0.046 0.804 0.137s0.492 0.235 0.699 0.431c0.206 0.196 0.369 0.45 0.488 0.762 0.119 0.31 0.179 0.688 0.179 1.132v0.338h-3.895v-0.715h2.96c0-0.251-0.051-0.473-0.153-0.667-0.102-0.196-0.246-0.35-0.431-0.463-0.183-0.113-0.398-0.169-0.644-0.169-0.268 0-0.502 0.066-0.702 0.198-0.198 0.13-0.351 0.3-0.459 0.51-0.106 0.208-0.16 0.435-0.16 0.679v0.558c0 0.327 0.057 0.606 0.172 0.836 0.117 0.23 0.28 0.405 0.488 0.526 0.208 0.119 0.452 0.179 0.73 0.179 0.181 0 0.346-0.026 0.494-0.077 0.149-0.053 0.277-0.132 0.386-0.236s0.191-0.233 0.249-0.386l0.903 0.163c-0.072 0.266-0.202 0.499-0.389 0.699-0.185 0.198-0.418 0.352-0.699 0.463-0.279 0.108-0.596 0.163-0.954 0.163z"></path>
</symbol>
<symbol id="icon-star" viewBox="0 0 32 32">
<path fill="#ffc531" style="fill: var(--color1, #ffc531); stroke: var(--color1, #ffc531)" stroke="#ffc531" stroke-linejoin="miter" stroke-linecap="butt" stroke-miterlimit="4" stroke-width="2.4" d="M12.4 9.394l3.6-6.822 3.6 6.822c0.318 0.603 0.899 1.025 1.571 1.141l7.601 1.315-5.376 5.532c-0.475 0.489-0.697 1.171-0.6 1.846l1.098 7.635-6.922-3.404c-0.612-0.301-1.329-0.301-1.941 0l-6.922 3.404 1.098-7.635c0.097-0.675-0.125-1.357-0.6-1.846l-5.376-5.532 7.601-1.315c0.672-0.116 1.252-0.538 1.571-1.141zM29.035 11.579v0zM7.767 27.031c0 0 0 0 0 0h-0z"></path>
</symbol>
<symbol id="icon-Users" viewBox="0 0 32 32">
<path d="M9.067 24.133h-4.4c-0.267 0-0.4-0.133-0.533-0.267s-0.267-0.4-0.133-0.667c0.8-2.267 2.8-3.6 5.067-3.6 2.8 0 5.067-2.4 5.067-5.2s-2.267-5.467-5.067-5.467-5.067 2.4-5.067 5.333c0 1.333 0.533 2.667 1.333 3.6-1.733 0.933-3.067 2.4-3.867 4.4-0.267 0.933-0.133 2.133 0.533 3.067s1.6 1.467 2.667 1.467h4.4c0.8 0 1.333-0.533 1.333-1.333s-0.533-1.333-1.333-1.333zM6.667 14.267c0-1.467 1.067-2.533 2.4-2.533s2.4 1.2 2.4 2.533c0 1.467-1.067 2.533-2.4 2.533s-2.4-1.2-2.4-2.533z"></path>
<path d="M30.533 21.467c-0.933-2.533-2.8-4.4-4.933-5.467 1.2-1.067 1.867-2.667 1.867-4.533 0-3.467-2.667-6.267-5.867-6.267s-5.867 2.8-5.867 6.267c0 1.733 0.667 3.333 1.867 4.533-2.133 1.067-4 2.933-4.933 5.467-0.667 1.2-0.4 2.533 0.267 3.6s1.867 1.6 3.067 1.6h11.067c1.2 0 2.4-0.667 3.067-1.6 0.8-1.067 0.933-2.4 0.4-3.6zM18.267 11.6c0-2 1.467-3.6 3.2-3.6s3.2 1.6 3.2 3.6-1.467 3.6-3.2 3.6c-1.733 0-3.2-1.733-3.2-3.6zM27.867 23.6c-0.133 0.133-0.4 0.533-0.8 0.533h-11.067c-0.533 0-0.8-0.4-0.8-0.533-0.133-0.133-0.4-0.667-0.133-1.2 1.067-2.8 3.733-4.667 6.533-4.667s5.467 1.867 6.533 4.667c0.133 0.533-0.133 1.067-0.267 1.2z"></path>
</symbol>
<symbol id="icon-Container-2" viewBox="0 0 32 32">
<path stroke-linejoin="round" stroke-linecap="round" stroke-miterlimit="4" stroke-width="2.4" d="M22.667 14.667h2c0.53 0 1.039-0.211 1.414-0.586s0.586-0.884 0.586-1.414-0.211-1.039-0.586-1.414c-0.375-0.375-0.884-0.586-1.414-0.586h-2v6.667M22.667 22.667v5.333h1.333c0.707 0 1.386-0.281 1.886-0.781s0.781-1.178 0.781-1.886c0-0.707-0.281-1.385-0.781-1.886s-1.178-0.781-1.886-0.781h-1.333zM4 6.667c0 0.707 0.281 1.386 0.781 1.886s1.178 0.781 1.886 0.781c0.707 0 1.386-0.281 1.886-0.781s0.781-1.178 0.781-1.886c0-0.707-0.281-1.386-0.781-1.886s-1.178-0.781-1.886-0.781c-0.707 0-1.386 0.281-1.886 0.781s-0.781 1.178-0.781 1.886z"></path>
<path stroke-linejoin="round" stroke-linecap="round" stroke-miterlimit="4" stroke-width="2.4" d="M6.667 9.333v4c0 0.354 0.14 0.693 0.391 0.943s0.589 0.391 0.943 0.391h4M12 14.667v9.333c0 0.354 0.14 0.693 0.391 0.943s0.589 0.39 0.943 0.39h4M12 14.667h5.333"></path>
</symbol>
<symbol id="icon-Vertical-container-1" viewBox="0 0 32 32">
<path d="M26.36 9.64l0.013-0.013-4.96-4.96-1.413 1.413 2.813 2.813c-1.253 0.48-2.147 1.68-2.147 3.107 0 0.438 0.086 0.871 0.254 1.276s0.413 0.772 0.723 1.081c0.625 0.625 1.473 0.976 2.357 0.976 0.48 0 0.92-0.107 1.333-0.28v9.613c0 0.354-0.14 0.693-0.391 0.943s-0.589 0.391-0.943 0.391c-0.354 0-0.693-0.14-0.943-0.391s-0.391-0.589-0.391-0.943v-6c0-0.707-0.281-1.386-0.781-1.886s-1.178-0.781-1.886-0.781h-1.333v-9.333c0-0.707-0.281-1.386-0.781-1.886s-1.178-0.781-1.886-0.781h-8c-0.707 0-1.386 0.281-1.886 0.781s-0.781 1.178-0.781 1.886v21.333h13.333v-10h2v6.667c0 0.884 0.351 1.732 0.976 2.357s1.473 0.976 2.357 0.976c0.438 0 0.871-0.086 1.276-0.254s0.772-0.413 1.081-0.723c0.309-0.309 0.555-0.677 0.723-1.081s0.254-0.838 0.254-1.276v-12.667c0-0.92-0.373-1.76-0.973-2.36zM16 18v7.333h-8v-9.333h8v2zM16 13.333h-8v-6.667h8v6.667zM24 13.333c-0.354 0-0.693-0.14-0.943-0.39s-0.391-0.589-0.391-0.943 0.14-0.693 0.391-0.943c0.25-0.25 0.589-0.39 0.943-0.39s0.693 0.14 0.943 0.39c0.25 0.25 0.391 0.589 0.391 0.943s-0.14 0.693-0.391 0.943c-0.25 0.25-0.589 0.39-0.943 0.39z"></path>
</symbol>
<symbol id="icon-Horizontal-container-2" viewBox="0 0 32 32">
<path stroke-linejoin="round" stroke-linecap="round" stroke-miterlimit="4" stroke-width="2.4" d="M25.333 20v-16c-6.421 6.125-6.697 11.092-6.667 16h6.667zM25.333 20v8h-1.333v-4M10.667 5.333v22.667M6.667 5.333v4c0 1.061 0.421 2.078 1.172 2.828s1.768 1.172 2.828 1.172c1.061 0 2.078-0.421 2.828-1.172s1.172-1.768 1.172-2.828v-4"></path>
</symbol>
<symbol id="icon-Container-3" viewBox="0 0 32 32">
<path stroke-linejoin="round" stroke-linecap="round" stroke-miterlimit="4" stroke-width="2.24" d="M3 26v-7c0.003-1.060 0.426-2.076 1.175-2.825s1.765-1.172 2.825-1.175h18c1.060 0.003 2.076 0.426 2.825 1.175s1.172 1.765 1.175 2.825v7M24 15h-18v-6.5c0.002-0.662 0.266-1.297 0.734-1.766s1.103-0.732 1.766-0.734h15c0.662 0.002 1.297 0.266 1.766 0.734s0.732 1.103 0.734 1.766v6.5h-2z"></path>
<path stroke-linejoin="round" stroke-linecap="round" stroke-miterlimit="4" stroke-width="2.24" d="M3 26v-0.5c0.001-0.397 0.16-0.778 0.441-1.059s0.662-0.44 1.059-0.441h23c0.397 0.001 0.778 0.16 1.059 0.441s0.44 0.662 0.441 1.059v0.5M7 15v-1c0.002-0.53 0.213-1.038 0.587-1.413s0.883-0.586 1.413-0.587h5c0.53 0.002 1.038 0.213 1.413 0.587s0.586 0.883 0.587 1.413M16 14v1M16 14c0.001-0.53 0.213-1.038 0.587-1.413s0.883-0.586 1.413-0.587h5c0.53 0.002 1.038 0.213 1.413 0.587s0.586 0.883 0.587 1.413v1"></path>
</symbol>
<symbol id="icon-Vertical-container-3" viewBox="0 0 32 32">
<path d="M15.504 3.2c-1.501 0-2.956 0.513-4.117 1.45s-1.956 2.241-2.251 3.69l-0.116 0.575c-0.031 0.129-0.035 0.262-0.012 0.392s0.072 0.255 0.144 0.366c0.073 0.111 0.167 0.207 0.278 0.281s0.236 0.126 0.367 0.152c0.132 0.026 0.267 0.025 0.399-0.001s0.256-0.079 0.366-0.155c0.11-0.075 0.204-0.171 0.276-0.283s0.12-0.236 0.142-0.367l0.118-0.573c0.222-1.075 0.84-2.030 1.737-2.681s2.006-0.951 3.114-0.843c1.108 0.108 2.136 0.618 2.884 1.43s1.164 1.868 1.167 2.965c0 1.175-0.474 2.302-1.318 3.134s-1.988 1.298-3.182 1.299h-14.5c-0.265 0-0.52 0.104-0.707 0.288s-0.293 0.435-0.293 0.696c0 0.261 0.105 0.512 0.293 0.696s0.442 0.288 0.707 0.288h14.5c1.696-0.041 3.309-0.733 4.494-1.928s1.849-2.799 1.849-4.47-0.662-3.275-1.846-4.471c-1.184-1.196-2.796-1.889-4.492-1.931zM27 12.062c-1.326 0-2.598 0.519-3.536 1.442s-1.464 2.175-1.464 3.481c0 0.261 0.105 0.512 0.293 0.696s0.442 0.288 0.707 0.288 0.52-0.104 0.707-0.288c0.188-0.185 0.293-0.435 0.293-0.696 0-0.584 0.176-1.155 0.506-1.641s0.798-0.864 1.346-1.088c0.548-0.224 1.151-0.282 1.733-0.168s1.116 0.395 1.536 0.808c0.42 0.413 0.705 0.939 0.821 1.512s0.056 1.167-0.171 1.707c-0.227 0.54-0.612 1.001-1.105 1.326s-1.073 0.498-1.667 0.498h-26c-0.265 0-0.52 0.104-0.707 0.288s-0.293 0.435-0.293 0.696c0 0.261 0.105 0.512 0.293 0.696s0.442 0.288 0.707 0.288h19.5c0.663 0.001 1.298 0.262 1.766 0.724s0.73 1.089 0.729 1.742c-0.001 0.653-0.266 1.279-0.736 1.739s-1.106 0.719-1.769 0.717c-0.597 0-1.175-0.207-1.632-0.587s-0.762-0.905-0.862-1.485l-0.010-0.059c-0.018-0.131-0.062-0.256-0.131-0.37s-0.159-0.212-0.267-0.29-0.23-0.134-0.36-0.165c-0.13-0.031-0.265-0.036-0.397-0.014s-0.258 0.069-0.372 0.14c-0.113 0.071-0.211 0.163-0.287 0.271s-0.129 0.231-0.157 0.36c-0.027 0.129-0.028 0.262-0.002 0.392l0.010 0.059c0.178 1.040 0.724 1.984 1.542 2.664s1.854 1.054 2.924 1.054c1.195 0 2.341-0.466 3.186-1.297s1.322-1.958 1.324-3.134c0-0.912-0.28-1.759-0.758-2.462h2.758c1.326 0 2.598-0.519 3.536-1.442s1.464-2.176 1.464-3.481c0-1.306-0.527-2.558-1.464-3.481s-2.209-1.442-3.536-1.442z"></path>
<path d="M15.504 3.2l0.198-7.998-0.1-0.002-0.1 0 0.002 8zM9.136 8.34l-7.839-1.595-0.003 0.013 7.842 1.582zM9.020 8.915l7.78 1.865 0.034-0.141 0.029-0.142-7.842-1.582zM10.98 9.301l-7.836-1.614-0.030 0.147-0.025 0.148 7.891 1.318zM11.098 8.728v0zM20 9.598h8v-0.020l-8 0.020zM15.5 14.031v8h0.004l-0.004-8zM0 15.015v0zM15.5 16v8h0.096l0.096-0.002-0.193-7.998zM24 16.985v0zM0 20.923v0zM20.5 21.908l0.016-8h-0.016v8zM20.49 26.831l0.016-8h-0.021l0.006 8zM17.996 24.759l-7.888 1.335 0.002 0.013 0.002 0.013 7.883-1.362zM17.986 24.7l-7.925 1.091 0.017 0.123 0.021 0.122 7.888-1.335zM16.014 25.023l7.888-1.335-0.020-0.119-0.024-0.119-7.844 1.573zM16.024 25.082l-7.888 1.335 0.002 0.014 7.885-1.349zM20.49 28.8l0.004-8h-0.005l0.001 8zM25 24.369l8 0.014v-0.014h-8zM24.242 21.908v-8h-15.114l8.498 12.498 6.616-4.498zM15.502-4.8c-3.317 0.001-6.547 1.131-9.139 3.224l10.049 12.451c-0.271 0.219-0.592 0.325-0.906 0.325l-0.004-16zM6.363-1.576c-2.595 2.095-4.397 5.030-5.066 8.32l15.679 3.19c-0.080 0.392-0.29 0.719-0.564 0.94l-10.049-12.451zM1.294 6.758l-0.116 0.575 15.684 3.164 0.116-0.575-15.684-3.164zM1.24 7.050c-0.285 1.188-0.324 2.423-0.115 3.627l15.764-2.74c0.164 0.944 0.133 1.912-0.090 2.843l-15.559-3.73zM1.126 10.677c0.209 1.205 0.662 2.349 1.325 3.366l13.402-8.74c0.518 0.794 0.872 1.69 1.037 2.634l-15.764 2.74zM2.451 14.043c0.663 1.017 1.521 1.883 2.518 2.552l8.922-13.282c0.775 0.521 1.444 1.195 1.962 1.99l-13.402 8.74zM4.969 16.595c0.997 0.67 2.113 1.13 3.283 1.361l3.091-15.699c0.906 0.178 1.773 0.536 2.548 1.056l-8.922 13.282zM8.251 17.956c1.169 0.23 2.373 0.226 3.54-0.011l-3.192-15.678c0.905-0.184 1.837-0.187 2.743-0.009l-3.091 15.699zM11.792 17.944c1.168-0.238 2.282-0.706 3.274-1.382l-9.008-13.224c0.772-0.526 1.636-0.889 2.541-1.073l3.192 15.678zM15.066 16.562c0.993-0.676 1.845-1.548 2.502-2.569l-13.459-8.652c0.513-0.798 1.178-1.477 1.95-2.003l9.008 13.224zM17.568 13.993c0.656-1.021 1.101-2.169 1.303-3.375l-15.781-2.636c0.158-0.945 0.506-1.843 1.019-2.641l13.459 8.652zM18.816 10.914l0.118-0.573-15.671-3.227-0.118 0.573 15.671 3.227zM18.933 10.344c-0.185 0.898-0.696 1.667-1.396 2.175l-9.405-12.944c-2.492 1.81-4.241 4.489-4.869 7.537l15.67 3.233zM17.537 12.519c-0.696 0.506-1.539 0.728-2.367 0.647l1.557-15.924c-3.044-0.298-6.106 0.525-8.594 2.333l9.405 12.944zM15.17 13.166c-0.829-0.081-1.623-0.464-2.218-1.11l11.763-10.846c-2.092-2.269-4.942-3.671-7.988-3.969l-1.557 15.924zM12.951 12.056c-0.598-0.649-0.949-1.516-0.951-2.438l16-0.040c-0.008-3.115-1.19-6.095-3.286-8.368l-11.763 10.846zM12 9.598c0-0.986 0.399-1.907 1.068-2.566l11.228 11.399c2.357-2.322 3.704-5.496 3.704-8.833h-16zM13.068 7.032c0.665-0.655 1.541-1.001 2.428-1.002l0.007 16c3.275-0.001 6.44-1.282 8.793-3.6l-11.228-11.399zM15.5 6.031h-14.5v16h14.5v-16zM1 6.031c-2.347 0-4.623 0.917-6.32 2.588l11.226 11.401c-1.322 1.302-3.089 2.011-4.906 2.011v-16zM-5.32 8.619c-1.701 1.675-2.68 3.974-2.68 6.397h16c0 1.901-0.768 3.699-2.094 5.004l-11.226-11.401zM-8 15.015c0 2.423 0.979 4.722 2.68 6.397l11.226-11.401c1.326 1.306 2.094 3.103 2.094 5.004h-16zM-5.32 21.412c1.697 1.671 3.973 2.588 6.32 2.588v-16c1.817 0 3.584 0.709 4.906 2.011l-11.226 11.401zM1 24h14.5v-16h-14.5v16zM15.693 23.998c3.744-0.090 7.329-1.617 9.982-4.294l-11.363-11.264c0.283-0.285 0.643-0.429 0.995-0.437l0.386 15.995zM25.675 19.704c2.657-2.68 4.167-6.302 4.168-10.1l-16-0.005c0-0.456 0.183-0.87 0.47-1.16l11.363 11.264zM29.843 9.604c0.001-3.797-1.506-7.42-4.161-10.102l-11.37 11.257c-0.287-0.29-0.469-0.704-0.469-1.16l16 0.005zM25.681-0.498c-2.651-2.678-6.236-4.207-9.98-4.3l-0.396 15.995c-0.352-0.009-0.712-0.152-0.995-0.438l11.37-11.257zM27 4.062c-3.408 0-6.701 1.332-9.148 3.741l11.226 11.401c-0.572 0.563-1.321 0.858-2.077 0.858v-16zM17.852 7.803c-2.451 2.414-3.852 5.714-3.852 9.182h16c0 0.856-0.347 1.652-0.923 2.219l-11.226-11.401zM14 16.985c0 2.423 0.979 4.722 2.68 6.397l11.226-11.401c1.326 1.306 2.094 3.103 2.094 5.004h-16zM16.68 23.381c1.697 1.671 3.973 2.588 6.32 2.588v-16c1.817 0 3.584 0.709 4.906 2.011l-11.226 11.401zM23 25.969c2.347 0 4.623-0.917 6.32-2.588l-11.226-11.401c1.322-1.302 3.089-2.011 4.906-2.011v16zM29.32 23.381c1.701-1.675 2.68-3.974 2.68-6.397h-16c0-1.901 0.768-3.699 2.094-5.004l11.226 11.401zM32 16.985c0 1.026-0.31 2.018-0.875 2.851l-13.239-8.985c-1.224 1.804-1.886 3.939-1.886 6.133h16zM31.125 19.836c-0.564 0.831-1.353 1.461-2.252 1.827l-6.042-14.815c-1.996 0.814-3.722 2.2-4.945 4.003l13.239 8.985zM28.873 21.663c-0.898 0.366-1.88 0.46-2.825 0.275l3.075-15.702c-2.11-0.413-4.297-0.202-6.292 0.611l6.042 14.815zM26.048 21.938c-0.946-0.185-1.832-0.646-2.539-1.342l11.226-11.401c-1.546-1.522-3.501-2.545-5.611-2.959l-3.075 15.702zM23.508 20.596c-0.708-0.697-1.205-1.601-1.408-2.604l15.683-3.168c-0.434-2.149-1.502-4.105-3.050-5.629l-11.226 11.401zM22.101 17.992c-0.203-1.004-0.098-2.042 0.297-2.98l14.748 6.204c0.848-2.017 1.072-4.243 0.638-6.393l-15.683 3.168zM22.398 15.013c0.394-0.936 1.052-1.716 1.872-2.256l8.794 13.367c1.807-1.189 3.234-2.891 4.082-4.907l-14.748-6.204zM24.27 12.757c0.819-0.539 1.769-0.819 2.73-0.819v16c2.148 0 4.258-0.627 6.064-1.814l-8.794-13.367zM27 11.938h-26v16h26v-16zM1 11.938c-2.347 0-4.623 0.917-6.32 2.588l11.226 11.401c-1.322 1.302-3.089 2.011-4.906 2.011v-16zM-5.32 14.526c-1.701 1.675-2.68 3.974-2.68 6.397h16c0 1.901-0.768 3.699-2.094 5.004l-11.226-11.401zM-8 20.923c0 2.423 0.979 4.722 2.68 6.397l11.226-11.401c1.326 1.306 2.094 3.103 2.094 5.004h-16zM-5.32 27.32c1.697 1.671 3.973 2.588 6.32 2.588v-16c1.817 0 3.584 0.709 4.906 2.011l-11.226 11.401zM1 29.908h19.5v-16h-19.5v16zM20.484 29.908c-1.419-0.003-2.804-0.559-3.842-1.586l11.248-11.379c-1.975-1.952-4.63-3.030-7.375-3.035l-0.031 16zM16.642 28.321c-1.043-1.031-1.65-2.454-1.647-3.964l16 0.032c0.006-2.815-1.126-5.492-3.104-7.448l-11.248 11.379zM14.995 24.358c0.003-1.509 0.616-2.93 1.663-3.956l11.203 11.423c1.986-1.948 3.129-4.62 3.134-7.435l-16-0.032zM16.658 20.402c1.043-1.023 2.429-1.574 3.848-1.571l-0.032 16c2.745 0.005 5.404-1.062 7.386-3.006l-11.203-11.423zM20.484 18.831c1.259-0.001 2.494 0.436 3.485 1.26l-10.223 12.308c1.904 1.582 4.296 2.434 6.749 2.433l-0.011-16zM23.97 20.090c0.994 0.826 1.682 1.992 1.909 3.307l-15.766 2.724c0.427 2.474 1.726 4.693 3.634 6.277l10.223-12.308zM25.884 23.424l-0.010-0.059-15.776 2.67 0.010 0.059 15.776-2.67zM25.911 23.609c-0.166-1.208-0.577-2.366-1.201-3.404l-13.709 8.25c-0.488-0.812-0.81-1.717-0.94-2.665l15.851-2.181zM24.71 20.205c-0.625-1.038-1.449-1.933-2.419-2.638l-9.404 12.945c-0.755-0.548-1.398-1.246-1.886-2.057l13.709-8.25zM22.291 17.568c-0.97-0.704-2.066-1.205-3.224-1.479l-3.678 15.572c-0.897-0.212-1.748-0.6-2.503-1.148l9.404-12.945zM19.067 16.089c-1.157-0.273-2.356-0.315-3.529-0.123l2.586 15.79c-0.908 0.149-1.838 0.117-2.734-0.095l3.678-15.572zM15.538 15.966c-1.173 0.192-2.3 0.615-3.315 1.248l8.473 13.572c-0.789 0.492-1.664 0.82-2.572 0.969l-2.586-15.79zM12.223 17.214c-1.015 0.634-1.899 1.467-2.595 2.456l13.089 9.202c-0.543 0.772-1.232 1.421-2.021 1.914l-8.473-13.572zM9.628 19.671c-0.696 0.989-1.187 2.113-1.439 3.306l15.654 3.31c-0.198 0.934-0.583 1.814-1.126 2.586l-13.089-9.202zM8.189 22.976c-0.252 1.193-0.259 2.424-0.019 3.62l15.688-3.146c0.188 0.937 0.183 1.902-0.015 2.837l-15.654-3.31zM8.126 26.358l0.010 0.059 15.776-2.67-0.010-0.059-15.776 2.67zM8.139 26.431c0.502 2.936 2.041 5.575 4.309 7.464l10.237-12.297c0.633 0.527 1.079 1.279 1.225 2.135l-15.771 2.698zM12.447 33.895c2.265 1.886 5.116 2.906 8.044 2.905l-0.003-16c0.787-0 1.565 0.273 2.196 0.798l-10.237 12.297zM20.487 36.8c3.275 0.001 6.441-1.276 8.796-3.59l-11.213-11.414c0.664-0.652 1.538-0.997 2.424-0.997l-0.007 16zM29.283 33.21c2.36-2.318 3.711-5.49 3.717-8.827l-16-0.029c0.002-0.984 0.401-1.902 1.070-2.558l11.213 11.414zM33 24.369c0-2.576-0.797-4.981-2.142-6.96l-13.231 8.996c-0.389-0.573-0.626-1.284-0.626-2.037h16zM24.242 29.908h2.758v-16h-2.758v16zM27 29.908c3.408 0 6.701-1.332 9.148-3.741l-11.226-11.401c0.572-0.563 1.321-0.858 2.077-0.858v16zM36.148 26.166c2.451-2.414 3.852-5.714 3.852-9.182h-16c0-0.856 0.347-1.652 0.923-2.219l11.226 11.401zM40 16.985c0-3.468-1.4-6.768-3.852-9.182l-11.226 11.401c-0.576-0.567-0.923-1.363-0.923-2.219h16zM36.148 7.803c-2.447-2.41-5.74-3.741-9.148-3.741v16c-0.756 0-1.505-0.295-2.077-0.858l11.226-11.401z"></path>
</symbol>
<symbol id="icon-heart" viewBox="0 0 33 32">
<path stroke-linejoin="round" stroke-linecap="round" stroke-miterlimit="4" stroke-width="3.0667" d="M28.453 6.147c-0.681-0.681-1.49-1.222-2.379-1.591s-1.844-0.559-2.807-0.559-1.917 0.19-2.807 0.559c-0.89 0.369-1.699 0.909-2.38 1.591l-1.413 1.413-1.413-1.413c-1.376-1.376-3.241-2.148-5.187-2.148s-3.811 0.773-5.187 2.148c-1.376 1.376-2.148 3.241-2.148 5.187s0.773 3.811 2.148 5.187l11.787 11.787 11.787-11.787c0.681-0.681 1.222-1.49 1.591-2.38s0.559-1.844 0.559-2.807-0.19-1.917-0.559-2.807c-0.369-0.89-0.909-1.699-1.591-2.38z"></path>
</symbol>
<symbol id="icon-streamline_hotel-air-conditioner" viewBox="0 0 32 32">
<path stroke-linejoin="round" stroke-linecap="round" stroke-miterlimit="4" stroke-width="2.4" d="M28.572 1.143h-25.143c-0.606 0-1.188 0.241-1.616 0.669s-0.669 1.010-0.669 1.616v11.429c0 0.606 0.241 1.188 0.669 1.616s1.010 0.669 1.616 0.669h25.143c0.606 0 1.188-0.241 1.616-0.669s0.669-1.010 0.669-1.616v-11.429c0-0.606-0.241-1.188-0.669-1.616s-1.010-0.669-1.616-0.669z"></path>
<path stroke-linejoin="round" stroke-linecap="round" stroke-miterlimit="4" stroke-width="2.4" d="M25.143 17.143v-4.571c0-0.606-0.241-1.188-0.669-1.616s-1.010-0.669-1.616-0.669h-13.714c-0.606 0-1.188 0.241-1.616 0.669s-0.669 1.010-0.669 1.616v4.571M5.714 28.572h0.229c0.849 0 1.663-0.337 2.263-0.937s0.937-1.414 0.937-2.263v-2.514M26.285 28.572h-0.228c-0.849 0-1.663-0.337-2.263-0.937s-0.937-1.414-0.937-2.263v-2.514M16 30.857v-8"></path>
</symbol>
<symbol id="icon-icon-park-outline_cd" viewBox="0 0 32 32">
<path stroke-linejoin="miter" stroke-linecap="butt" stroke-miterlimit="4" stroke-width="2.4" d="M16 28c6.627 0 12-5.373 12-12s-5.373-12-12-12c-6.627 0-12 5.373-12 12s5.373 12 12 12z"></path>
<path stroke-linejoin="miter" stroke-linecap="round" stroke-miterlimit="4" stroke-width="2.4" d="M8.666 16c0-4.050 3.283-7.333 7.333-7.333"></path>
<path stroke-linejoin="miter" stroke-linecap="butt" stroke-miterlimit="4" stroke-width="2.4" d="M16 19.333c1.841 0 3.333-1.492 3.333-3.333s-1.492-3.333-3.333-3.333c-1.841 0-3.333 1.492-3.333 3.333s1.492 3.333 3.333 3.333z"></path>
</symbol>
<symbol id="icon-solar_radio-linear" viewBox="0 0 32 32">
<path stroke-linejoin="miter" stroke-linecap="butt" stroke-miterlimit="4" stroke-width="2.0800" d="M2.666 18.667c0-5.028 0-7.543 1.563-9.104 1.561-1.563 4.076-1.563 9.104-1.563h5.333c5.028 0 7.543 0 9.104 1.563 1.563 1.561 1.563 4.076 1.563 9.104s0 7.543-1.563 9.104c-1.561 1.563-4.076 1.563-9.104 1.563h-5.333c-5.028 0-7.543 0-9.104-1.563-1.563-1.561-1.563-4.076-1.563-9.104z"></path>
<path stroke-linejoin="miter" stroke-linecap="butt" stroke-miterlimit="4" stroke-width="2.0800" d="M6.666 14.667c0-0.707 0.281-1.386 0.781-1.886s1.178-0.781 1.886-0.781h13.333c0.707 0 1.386 0.281 1.886 0.781s0.781 1.178 0.781 1.886-0.281 1.386-0.781 1.886c-0.5 0.5-1.178 0.781-1.886 0.781h-13.333c-0.707 0-1.386-0.281-1.886-0.781s-0.781-1.178-0.781-1.886zM12 22.667c0 0.53-0.211 1.039-0.586 1.414s-0.884 0.586-1.414 0.586-1.039-0.211-1.414-0.586c-0.375-0.375-0.586-0.884-0.586-1.414s0.211-1.039 0.586-1.414 0.884-0.586 1.414-0.586c0.53 0 1.039 0.211 1.414 0.586s0.586 0.884 0.586 1.414z"></path>
<path stroke-linejoin="miter" stroke-linecap="round" stroke-miterlimit="4" stroke-width="2.0800" d="M20 15.333v2M17.333 22.667h6.667M8.666 8l11.333-5.333"></path>
</symbol>
<symbol id="icon-icon-park-outline_hand-painted-plate" viewBox="0 0 32 32">
<path fill="none" stroke="#101828" style="stroke: var(--color1, #101828)" stroke-linejoin="miter" stroke-linecap="butt" stroke-miterlimit="4" stroke-width="2.4" d="M12 6.667h16c0.354 0 0.693 0.14 0.943 0.391s0.391 0.589 0.391 0.943v17.333c0 0.354-0.14 0.693-0.391 0.943s-0.589 0.391-0.943 0.391h-16M12 6.667h-8c-0.354 0-0.693 0.14-0.943 0.391s-0.391 0.589-0.391 0.943v17.333c0 0.354 0.14 0.693 0.391 0.943s0.589 0.391 0.943 0.391h8M12 6.667v20"></path>
<path fill="none" stroke="#101828" style="stroke: var(--color1, #101828)" stroke-linejoin="round" stroke-linecap="round" stroke-miterlimit="4" stroke-width="2.4" d="M7.333 11.333v2.667M24.666 10.667l-8 11.333"></path>
<path d="M8.667 18c0-0.736-0.597-1.333-1.333-1.333s-1.333 0.597-1.333 1.333c0 0.736 0.597 1.333 1.333 1.333s1.333-0.597 1.333-1.333z"></path>
<path d="M8.667 22c0-0.736-0.597-1.333-1.333-1.333s-1.333 0.597-1.333 1.333c0 0.736 0.597 1.333 1.333 1.333s1.333-0.597 1.333-1.333z"></path>
</symbol>
<symbol id="icon-Rating" viewBox="0 0 34 32">
<path fill="#ffc531" style="fill: var(--color1, #ffc531); stroke: var(--color1, #ffc531)" stroke="#ffc531" stroke-linejoin="miter" stroke-linecap="butt" stroke-miterlimit="4" stroke-width="2.56" d="M13.227 10.020l3.84-7.277 3.84 7.277c0.34 0.644 0.959 1.093 1.675 1.217l8.108 1.403-5.735 5.9c-0.507 0.522-0.744 1.249-0.64 1.97l1.171 8.144-7.384-3.631c-0.653-0.321-1.418-0.321-2.071 0l-7.384 3.631 1.171-8.144c0.104-0.72-0.133-1.448-0.64-1.97l-5.735-5.9 8.108-1.403c0.717-0.124 1.336-0.574 1.675-1.217zM30.971 12.35v0zM8.285 28.833c0 0 0 0 0 0h-0z"></path>
</symbol>
</defs>
</svg>
